<svg width="18" height="18" viewBox="0 0 18 18" fill="none" xmlns="http://www.w3.org/2000/svg">
<path d="M9.96767 12.3879C9.76771 12.5784 9.75999 12.8949 9.95043 13.0948C10.1409 13.2948 10.4574 13.3025 10.6573 13.1121L9.96767 12.3879ZM14.5948 9.36207C14.7948 9.17163 14.8025 8.85514 14.6121 8.65517C14.4216 8.45521 14.1051 8.44749 13.9052 8.63793L14.5948 9.36207ZM13.9052 9.36207C14.1051 9.55251 14.4216 9.54479 14.6121 9.34483C14.8025 9.14486 14.7948 8.82837 14.5948 8.63793L13.9052 9.36207ZM10.6573 4.88793C10.4574 4.69749 10.1409 4.70521 9.95043 4.90517C9.75999 5.10514 9.76771 5.42163 9.96767 5.61207L10.6573 4.88793ZM14.25 9.5C14.5261 9.5 14.75 9.27614 14.75 9C14.75 8.72386 14.5261 8.5 14.25 8.5V9.5ZM3.75 8.5C3.47386 8.5 3.25 8.72386 3.25 9C3.25 9.27614 3.47386 9.5 3.75 9.5V8.5ZM10.6573 13.1121L14.5948 9.36207L13.9052 8.63793L9.96767 12.3879L10.6573 13.1121ZM14.5948 8.63793L10.6573 4.88793L9.96767 5.61207L13.9052 9.36207L14.5948 8.63793ZM14.25 8.5H3.75V9.5L14.25 9.5V8.5Z" fill="#D2170D"/>
</svg>
