<svg width="22" height="22" viewBox="0 0 22 22" fill="none" xmlns="http://www.w3.org/2000/svg">
<g clip-path="url(#clip0_78_6470)">
<path d="M13.0156 11.0181L21.5819 2.45145C22.1394 1.89422 22.1394 0.993268 21.5819 0.436045C21.0247 -0.121178 20.1238 -0.121178 19.5665 0.436045L10.9999 9.00267L2.43352 0.436045C1.87603 -0.121178 0.975338 -0.121178 0.418114 0.436045C-0.139371 0.993268 -0.139371 1.89422 0.418114 2.45145L8.98449 11.0181L0.418114 19.5847C-0.139371 20.1419 -0.139371 21.0429 0.418114 21.6001C0.695812 21.8781 1.06094 22.0177 1.42582 22.0177C1.79069 22.0177 2.15556 21.8781 2.43352 21.6001L10.9999 13.0335L19.5665 21.6001C19.8445 21.8781 20.2094 22.0177 20.5742 22.0177C20.9391 22.0177 21.304 21.8781 21.5819 21.6001C22.1394 21.0429 22.1394 20.1419 21.5819 19.5847L13.0156 11.0181Z" fill="#7C7C7C"/>
</g>
<defs>
<clipPath id="clip0_78_6470">
<rect width="22" height="22" fill="white"/>
</clipPath>
</defs>
</svg>
