<svg width="29" height="30" viewBox="0 0 29 30" fill="none" xmlns="http://www.w3.org/2000/svg">
<path fill-rule="evenodd" clip-rule="evenodd" d="M6.54002 2.24158C5.59517 5.71827 7.68162 8.57606 9.78537 11.4517C13.2442 16.1851 16.7442 20.9753 9.11295 28.7622L7.90053 30L7.88918 28.2633C7.85134 22.2326 5.17952 18.6321 3.01794 15.7208C-0.284707 11.2712 -2.51548 8.26635 5.38384 1.51133L7.14975 8.97078e-06L6.54002 2.24158" fill="#D41E25"/>
<path fill-rule="evenodd" clip-rule="evenodd" d="M21.8609 2.24158C20.9155 5.71827 23.0031 8.57606 25.1057 11.4517C28.5651 16.1851 32.065 20.9753 24.4338 28.7622L23.2214 30L23.2101 28.2633C23.1728 22.2326 20.5004 18.6321 18.3388 15.7208C15.0356 11.2712 12.8054 8.26635 20.7047 1.51133L22.4701 8.97078e-06L21.8609 2.24158" fill="#D41E25"/>
</svg>
