<svg width="215" height="47" viewBox="0 0 215 47" fill="none" xmlns="http://www.w3.org/2000/svg">
<path fill-rule="evenodd" clip-rule="evenodd" d="M106.954 10.7648H112.782V22.671H113.719L121.367 10.69H127.578L119.271 24.2263L127.755 38.6591H121.561L113.692 26.3383H112.782V38.6962H106.552V10.7648H106.954Z" fill="#D2170D"/>
<path fill-rule="evenodd" clip-rule="evenodd" d="M37.846 32.878C37.0585 34.1062 35.9863 34.8661 34.8178 34.8661C33.6494 34.8661 32.5772 34.1062 31.79 32.878C30.9688 31.5969 30.4601 29.8177 30.4601 27.8456C30.4601 25.8734 30.9688 24.0946 31.79 22.8136C32.5772 21.5854 33.6494 20.8254 34.8178 20.8254C35.9863 20.8254 37.0585 21.5854 37.846 22.8136C38.6672 24.0946 39.1758 25.8734 39.1758 27.8456C39.1758 29.8177 38.6672 31.5969 37.846 32.878ZM36.4257 16.9736C34.5395 16.9736 33.1747 17.338 32.0811 18.0733C31.3436 18.5687 30.7408 19.226 30.1925 20.0474V17.019H24.3648H23.9629V46.6346H30.1925V35.2192C30.8416 36.142 31.6084 36.9198 32.4613 37.5114C33.6445 38.3329 34.9933 38.7974 36.4257 38.7974C47.6374 38.7974 47.3256 16.9736 36.4257 16.9736" fill="#D2170D"/>
<path fill-rule="evenodd" clip-rule="evenodd" d="M92.3482 25.2576H101.793V30.5828H91.9463V25.2576H92.3482Z" fill="#D2170D"/>
<path fill-rule="evenodd" clip-rule="evenodd" d="M163.433 21.4269V38.4949H157.731V21.4269H152.117V17.1568H169.047V21.4269H163.433Z" fill="#D2170D"/>
<path fill-rule="evenodd" clip-rule="evenodd" d="M143.44 33.115C142.493 34.4165 141.195 35.2221 139.772 35.2221C138.348 35.2221 137.05 34.4165 136.102 33.115C135.128 31.7775 134.526 29.9201 134.526 27.8628C134.526 25.8053 135.128 23.9479 136.103 22.6104C137.05 21.3092 138.348 20.5033 139.772 20.5033C141.195 20.5033 142.493 21.3092 143.441 22.6104C144.415 23.9479 145.017 25.8053 145.017 27.8628C145.017 29.9201 144.415 31.7775 143.44 33.115ZM147.149 20.0227C145.261 18.007 142.652 16.7602 139.772 16.7602C136.891 16.7602 134.282 18.007 132.393 20.0217C130.512 22.0297 129.348 24.8033 129.348 27.8628C129.348 30.9221 130.512 33.6954 132.394 35.7029C134.282 37.7184 136.891 38.9652 139.772 38.9652C142.652 38.9652 145.261 37.7184 147.15 35.704C149.031 33.6954 150.195 30.9221 150.195 27.8628C150.195 24.8033 149.031 22.0297 147.149 20.0227" fill="#D2170D"/>
<path fill-rule="evenodd" clip-rule="evenodd" d="M79.4858 16.7601C81.5732 16.7601 83.5177 17.4496 85.145 18.6354C86.817 19.8529 88.1529 21.5938 88.9637 23.6458L89.181 24.1953H83.4681L83.3678 23.9376C82.9345 22.8207 82.3387 21.8987 81.6394 21.267C80.9951 20.6832 80.26 20.3518 79.4858 20.3518C78.2417 20.3518 77.0988 21.21 76.2585 22.596C75.3824 24.0423 74.8395 26.0503 74.8395 28.2769C74.8395 30.5028 75.3824 32.5113 76.2585 33.9571C77.0988 35.3431 78.2417 36.2013 79.4858 36.2013C80.3274 36.2013 81.1231 35.8086 81.8074 35.1268C82.5489 34.3891 83.1617 33.3182 83.5723 32.0348L83.6622 31.7557H89.3661L89.1891 32.2848C88.4496 34.502 87.1127 36.3987 85.3965 37.7295C83.7202 39.0308 81.6828 39.793 79.4858 39.793C76.6208 39.793 74.0283 38.4971 72.1543 36.4028C70.2908 34.3204 69.1377 31.4468 69.1377 28.2769C69.1377 25.1071 70.2908 22.2332 72.1543 20.1506C74.0283 18.0563 76.6208 16.7601 79.4858 16.7601Z" fill="#D2170D"/>
<path fill-rule="evenodd" clip-rule="evenodd" d="M215 17.9155V38.4373H209.905V21.2562H203.776L201.759 31.8879C201.109 34.7636 200.027 36.5858 198.62 37.6061C197.191 38.6421 195.454 38.8438 193.509 38.4761L193.172 38.4122L193.299 34.2935L193.724 34.3354C196.477 34.6045 197.505 28.4242 198.44 22.7959C198.748 20.9367 199.049 19.1345 199.399 17.6361L199.472 17.3254H215V17.9155Z" fill="#D2170D"/>
<path fill-rule="evenodd" clip-rule="evenodd" d="M177.04 25.3942C177.277 23.3438 178.204 21.9948 179.384 21.3141C179.986 20.9658 180.658 20.7901 181.335 20.7832C182.016 20.7763 182.707 20.94 183.344 21.2684C184.656 21.946 185.745 23.3333 186.09 25.3942H177.04ZM191.204 28.0112C191.204 25.0485 190.122 22.362 188.374 20.4163C186.615 18.4596 184.182 17.2485 181.492 17.2485C178.803 17.2485 176.369 18.4596 174.611 20.4168C172.862 22.3625 171.78 25.0485 171.78 28.0112C171.78 30.9743 172.863 33.6607 174.611 35.6065C176.369 37.5634 178.802 38.7748 181.492 38.7748C183.339 38.7748 185.067 38.2023 186.538 37.2093C188.051 36.1881 189.293 34.7176 190.114 32.9659L190.382 32.3947H185.164L185.051 32.6128C184.321 34.0215 183.502 34.8328 182.677 35.1798C182.041 35.4459 181.391 35.4326 180.774 35.2035C180.125 34.9633 179.506 34.4896 178.962 33.8525C177.879 32.5852 177.101 30.6903 176.968 28.6774H191.195C191.196 28.5873 191.188 28.0628 191.204 28.0112" fill="#D2170D"/>
<path fill-rule="evenodd" clip-rule="evenodd" d="M59.9953 31.078C59.72 31.8908 59.3199 32.6182 58.7944 33.1371C57.1704 34.7419 55.6715 35.0535 54.5447 34.6671C53.6178 34.3492 52.9281 33.5584 52.6263 32.6348C52.3247 31.7112 52.4118 30.6562 53.0351 29.8084C53.8905 28.6456 55.7596 27.8522 59.0237 28.2314C59.4284 28.2784 59.8344 28.3726 60.2228 28.4625L60.4442 28.5136C60.4199 29.3692 60.2711 30.264 59.9953 31.078ZM65.8202 33.3176C65.3856 32.4311 65.2306 31.2652 65.2196 30.2073L65.2201 30.0763C65.2201 29.3146 65.2572 28.5516 65.2939 27.7866C65.4681 24.1832 65.6458 20.5006 62.2748 18.4323C61.3456 17.8626 60.2751 17.4822 59.1516 17.2797C57.2789 16.9416 55.2533 17.0966 53.4853 17.6813C51.6925 18.274 50.1515 19.3135 49.2787 20.7358C48.9499 21.273 48.7152 21.8659 48.5995 22.5091L48.5339 22.8743L53.1424 24.0616L53.2999 23.8285C54.2066 22.4857 55.3432 21.7707 56.4286 21.572C57.0427 21.4599 57.642 21.5123 58.1693 21.7076C58.692 21.9019 59.1483 22.2382 59.4849 22.6953C59.9447 23.3191 60.1863 24.1742 60.0796 25.2107C53.7483 24.5718 50.0379 26.1394 48.278 28.3956C46.927 30.1273 46.7181 32.2564 47.3514 34.1266C47.9806 35.9872 49.4465 37.5957 51.4448 38.2996C53.9227 39.1724 57.2105 38.6607 60.7097 35.5138C62.1205 38.0711 63.7935 38.4074 66.5354 38.6178L68.6119 34.7115C67.3073 34.7144 66.4833 34.6702 65.8202 33.3176" fill="#D2170D"/>
<path fill-rule="evenodd" clip-rule="evenodd" d="M0.401912 10.7648H6.22964V22.671H7.1665L14.8153 10.69H21.0258L12.7195 24.2263L21.2035 38.6591H15.0094L7.14071 26.3383H6.22964V38.6962H0V10.7648H0.401912Z" fill="#D2170D"/>
<path fill-rule="evenodd" clip-rule="evenodd" d="M175.766 1.05892C175.32 2.70129 176.306 4.0513 177.299 5.40973C178.933 7.64578 180.587 9.90865 176.982 13.5871L176.409 14.1719L176.404 13.3515C176.386 10.5026 175.124 8.80173 174.102 7.42644C172.542 5.32445 171.488 3.90499 175.22 0.713952L176.054 9.46592e-06L175.766 1.05892" fill="#D41E25"/>
<path fill-rule="evenodd" clip-rule="evenodd" d="M183.004 1.05892C182.557 2.70129 183.543 4.0513 184.536 5.40973C186.171 7.64578 187.824 9.90865 184.219 13.5871L183.646 14.1719L183.641 13.3515C183.623 10.5026 182.361 8.80173 181.34 7.42644C179.779 5.32445 178.726 3.90499 182.457 0.713952L183.291 9.46592e-06L183.004 1.05892" fill="#D41E25"/>
</svg>
