<svg>
    <symbol id="logo" width="215" height="47" viewBox="0 0 215 47" fill="none" xmlns="http://www.w3.org/2000/svg">
        <path fill-rule="evenodd" clip-rule="evenodd" d="M106.954 10.7648H112.782V22.671H113.718L121.367 10.69H127.578L119.271 24.2263L127.755 38.6591H121.561L113.692 26.3383H112.782V38.6962H106.552V10.7648H106.954Z" fill="#D2170D"/>
        <path fill-rule="evenodd" clip-rule="evenodd" d="M37.8457 32.878C37.0582 34.1062 35.986 34.8661 34.8176 34.8661C33.6491 34.8661 32.5769 34.1062 31.7897 32.878C30.9685 31.5969 30.4599 29.8177 30.4599 27.8456C30.4599 25.8734 30.9685 24.0946 31.7897 22.8136C32.5769 21.5854 33.6491 20.8254 34.8176 20.8254C35.986 20.8254 37.0582 21.5854 37.8457 22.8136C38.6669 24.0946 39.1756 25.8734 39.1756 27.8456C39.1756 29.8177 38.6669 31.5969 37.8457 32.878ZM36.4255 16.9736C34.5393 16.9736 33.1745 17.338 32.0808 18.0733C31.3434 18.5687 30.7405 19.226 30.1923 20.0474V17.019H24.3646H23.9626V46.6346H30.1923V35.2192C30.8414 36.142 31.6082 36.9198 32.461 37.5114C33.6443 38.3329 34.993 38.7974 36.4255 38.7974C47.6372 38.7974 47.3254 16.9736 36.4255 16.9736Z" fill="#D2170D"/>
        <path fill-rule="evenodd" clip-rule="evenodd" d="M92.3483 25.2576H101.793V30.5828H91.9464V25.2576H92.3483Z" fill="#D2170D"/>
        <path fill-rule="evenodd" clip-rule="evenodd" d="M163.433 21.4269V38.4949H157.731V21.4269H152.117V17.1568H169.047V21.4269H163.433Z" fill="#D2170D"/>
        <path fill-rule="evenodd" clip-rule="evenodd" d="M143.44 33.115C142.494 34.4165 141.195 35.2221 139.772 35.2221C138.348 35.2221 137.05 34.4165 136.102 33.115C135.128 31.7775 134.526 29.9201 134.526 27.8628C134.526 25.8053 135.128 23.9479 136.103 22.6104C137.05 21.3092 138.348 20.5033 139.772 20.5033C141.195 20.5033 142.494 21.3092 143.441 22.6104C144.415 23.9479 145.018 25.8053 145.018 27.8628C145.018 29.9201 144.415 31.7775 143.44 33.115ZM147.149 20.0227C145.262 18.007 142.652 16.7602 139.772 16.7602C136.891 16.7602 134.282 18.007 132.393 20.0217C130.512 22.0297 129.348 24.8033 129.348 27.8628C129.348 30.9221 130.512 33.6954 132.394 35.7029C134.282 37.7184 136.891 38.9652 139.772 38.9652C142.652 38.9652 145.262 37.7184 147.15 35.704C149.032 33.6954 150.196 30.9221 150.196 27.8628C150.196 24.8033 149.032 22.0297 147.149 20.0227Z" fill="#D2170D"/>
        <path fill-rule="evenodd" clip-rule="evenodd" d="M79.4857 16.7601C81.5731 16.7601 83.5176 17.4496 85.1449 18.6354C86.8169 19.8529 88.1528 21.5938 88.9635 23.6458L89.1808 24.1953H83.468L83.3677 23.9376C82.9343 22.8207 82.3386 21.8987 81.6392 21.267C80.995 20.6832 80.2599 20.3518 79.4857 20.3518C78.2416 20.3518 77.0987 21.21 76.2584 22.596C75.3823 24.0423 74.8394 26.0503 74.8394 28.2769C74.8394 30.5028 75.3823 32.5113 76.2584 33.9571C77.0987 35.3431 78.2416 36.2013 79.4857 36.2013C80.3273 36.2013 81.1229 35.8086 81.8073 35.1268C82.5488 34.3891 83.1616 33.3182 83.5722 32.0348L83.6621 31.7557H89.366L89.189 32.2848C88.4495 34.502 87.1125 36.3987 85.3964 37.7295C83.72 39.0308 81.6826 39.793 79.4857 39.793C76.6207 39.793 74.0282 38.4971 72.1542 36.4028C70.2907 34.3204 69.1376 31.4468 69.1376 28.2769C69.1376 25.1071 70.2907 22.2332 72.1542 20.1506C74.0282 18.0563 76.6207 16.7601 79.4857 16.7601Z" fill="#D2170D"/>
        <path fill-rule="evenodd" clip-rule="evenodd" d="M215 17.9155V38.4373H209.905V21.2562H203.776L201.759 31.8879C201.109 34.7636 200.027 36.5858 198.62 37.6061C197.191 38.6421 195.454 38.8438 193.509 38.4761L193.172 38.4122L193.299 34.2935L193.724 34.3354C196.477 34.6045 197.505 28.4242 198.44 22.7959C198.748 20.9367 199.049 19.1345 199.399 17.6361L199.472 17.3254H215V17.9155Z" fill="#D2170D"/>
        <path fill-rule="evenodd" clip-rule="evenodd" d="M177.041 25.3942C177.277 23.3438 178.204 21.9948 179.385 21.3141C179.987 20.9658 180.658 20.7901 181.335 20.7832C182.016 20.7763 182.707 20.94 183.344 21.2684C184.656 21.946 185.745 23.3333 186.091 25.3942H177.041ZM191.204 28.0112C191.204 25.0485 190.122 22.362 188.374 20.4163C186.616 18.4596 184.182 17.2485 181.492 17.2485C178.803 17.2485 176.369 18.4596 174.611 20.4168C172.863 22.3625 171.781 25.0485 171.781 28.0112C171.781 30.9743 172.863 33.6607 174.611 35.6065C176.369 37.5634 178.802 38.7748 181.492 38.7748C183.339 38.7748 185.067 38.2023 186.538 37.2093C188.051 36.1881 189.294 34.7176 190.114 32.9659L190.382 32.3947H185.165L185.051 32.6128C184.321 34.0215 183.502 34.8328 182.677 35.1798C182.041 35.4459 181.392 35.4326 180.774 35.2035C180.126 34.9633 179.506 34.4896 178.962 33.8525C177.879 32.5852 177.102 30.6903 176.969 28.6774H191.195C191.197 28.5873 191.189 28.0628 191.204 28.0112Z" fill="#D2170D"/>
        <path fill-rule="evenodd" clip-rule="evenodd" d="M59.9954 31.078C59.7202 31.8908 59.32 32.6182 58.7945 33.1371C57.1705 34.7419 55.6717 35.0535 54.5448 34.6671C53.6179 34.3492 52.9282 33.5584 52.6264 32.6348C52.3249 31.7112 52.4119 30.6562 53.0352 29.8084C53.8906 28.6456 55.7598 27.8522 59.0238 28.2314C59.4285 28.2784 59.8345 28.3726 60.2229 28.4625L60.4443 28.5136C60.4201 29.3692 60.2712 30.264 59.9954 31.078ZM65.8203 33.3176C65.3857 32.4311 65.2307 31.2652 65.2198 30.2073L65.2203 30.0763C65.2203 29.3146 65.2573 28.5516 65.2941 27.7866C65.4682 24.1832 65.6459 20.5006 62.2749 18.4323C61.3457 17.8626 60.2753 17.4822 59.1518 17.2797C57.2791 16.9416 55.2534 17.0966 53.4854 17.6813C51.6926 18.274 50.1516 19.3135 49.2789 20.7358C48.95 21.273 48.7153 21.8659 48.5996 22.5091L48.534 22.8743L53.1425 24.0616L53.3 23.8285C54.2068 22.4857 55.3433 21.7707 56.4288 21.572C57.0429 21.4599 57.6422 21.5123 58.1694 21.7076C58.6921 21.9019 59.1484 22.2382 59.485 22.6953C59.9449 23.3191 60.1864 24.1742 60.0797 25.2107C53.7484 24.5718 50.038 26.1394 48.2782 28.3956C46.9271 30.1273 46.7183 32.2564 47.3515 34.1266C47.9807 35.9872 49.4466 37.5957 51.4449 38.2996C53.9228 39.1724 57.2106 38.6607 60.7099 35.5138C62.1206 38.0711 63.7937 38.4074 66.5355 38.6178L68.612 34.7115C67.3075 34.7144 66.4835 34.6702 65.8203 33.3176Z" fill="#D2170D"/>
        <path fill-rule="evenodd" clip-rule="evenodd" d="M0.401912 10.7648H6.22964V22.671H7.1665L14.8153 10.69H21.0258L12.7195 24.2263L21.2035 38.6591H15.0094L7.14071 26.3383H6.22964V38.6962H0V10.7648H0.401912Z" fill="#D2170D"/>
        <path fill-rule="evenodd" clip-rule="evenodd" d="M175.766 1.05892C175.32 2.70129 176.305 4.0513 177.299 5.40973C178.933 7.64578 180.587 9.90865 176.982 13.5871L176.409 14.1719L176.403 13.3515C176.386 10.5026 175.123 8.80173 174.102 7.42644C172.542 5.32445 171.488 3.90499 175.22 0.713951L176.054 9.53674e-06L175.766 1.05892Z" fill="#D41E25"/>
        <path fill-rule="evenodd" clip-rule="evenodd" d="M183.004 1.05892C182.557 2.70129 183.543 4.0513 184.536 5.40973C186.171 7.64578 187.824 9.90865 184.219 13.5871L183.646 14.1719L183.641 13.3515C183.623 10.5026 182.361 8.80173 181.34 7.42644C179.779 5.32445 178.726 3.90499 182.457 0.713951L183.291 9.53674e-06L183.004 1.05892Z" fill="#D41E25"/>
    </symbol>

    <symbol id="search" width="24" height="24" viewBox="0 0 24 24" fill="none" xmlns="http://www.w3.org/2000/svg">
        <g opacity="0.5">
        <path fill-rule="evenodd" clip-rule="evenodd" d="M5 11.1455C4.99956 8.21437 7.06975 5.69108 9.94452 5.11883C12.8193 4.54659 15.698 6.08477 16.82 8.79267C17.9421 11.5006 16.995 14.624 14.558 16.2528C12.121 17.8815 8.87287 17.562 6.8 15.4895C5.64763 14.3376 5.00014 12.775 5 11.1455Z" stroke="white" stroke-width="1.5" stroke-linecap="round" stroke-linejoin="round"/>
        <path d="M15.489 15.4905L19 19.0015" stroke="white" stroke-width="1.5" stroke-linecap="round" stroke-linejoin="round"/>
        </g>
    </symbol>
    <symbol id="search-dark" width="24" height="24" viewBox="0 0 24 24" fill="none" xmlns="http://www.w3.org/2000/svg">
        <g opacity="0.5">
        <path fill-rule="evenodd" clip-rule="evenodd" d="M5 11.1455C4.99956 8.21437 7.06975 5.69108 9.94452 5.11883C12.8193 4.54659 15.698 6.08477 16.82 8.79267C17.9421 11.5006 16.995 14.624 14.558 16.2528C12.121 17.8815 8.87287 17.562 6.8 15.4895C5.64763 14.3376 5.00014 12.775 5 11.1455Z" stroke="#212121" stroke-width="1.5" stroke-linecap="round" stroke-linejoin="round"/>
        <path d="M15.489 15.4905L19 19.0015" stroke="#212121" stroke-width="1.5" stroke-linecap="round" stroke-linejoin="round"/>
        </g>
    </symbol>

    <symbol id="address" width="17" height="23" viewBox="0 0 17 23" fill="none" xmlns="http://www.w3.org/2000/svg">
        <path d="M14.0788 7.23113C14.0183 7.00434 13.8954 6.76268 13.8045 6.55111C12.7167 3.93689 10.3399 3 8.42078 3C5.85165 3 3.02206 4.72271 2.64429 8.27362V8.99909C2.64429 9.02937 2.65472 9.30134 2.66954 9.43738C2.88131 11.1297 4.21665 12.9282 5.21393 14.6205C6.28686 16.4336 7.40018 18.2171 8.50319 20C9.18332 18.8365 9.86101 17.6578 10.5257 16.5245C10.7068 16.1919 10.9171 15.8595 11.0984 15.542C11.2193 15.3306 11.4502 15.1192 11.5557 14.9226C12.6285 12.9583 14.3555 10.9788 14.3555 9.02933V8.22849C14.3555 8.01715 14.0936 7.2767 14.0788 7.23113ZM8.46781 10.873C7.71262 10.873 6.88601 10.4954 6.478 9.45252C6.41721 9.28651 6.42211 8.95384 6.42211 8.92336V8.45492C6.42211 7.12548 7.55093 6.52091 8.53295 6.52091C9.74192 6.52091 10.677 7.48815 10.677 8.69713C10.677 9.90606 9.67678 10.873 8.46781 10.873Z" fill="#F2F2F2"/>
    </symbol>
    <symbol id="address-dark" width="17" height="23" viewBox="0 0 17 23" fill="none" xmlns="http://www.w3.org/2000/svg">
        <path d="M14.0788 7.23113C14.0183 7.00434 13.8954 6.76268 13.8045 6.55111C12.7167 3.93689 10.3399 3 8.42078 3C5.85165 3 3.02206 4.72271 2.64429 8.27362V8.99909C2.64429 9.02937 2.65472 9.30134 2.66954 9.43738C2.88131 11.1297 4.21665 12.9282 5.21393 14.6205C6.28686 16.4336 7.40018 18.2171 8.50319 20C9.18332 18.8365 9.86101 17.6578 10.5257 16.5245C10.7068 16.1919 10.9171 15.8595 11.0984 15.542C11.2193 15.3306 11.4502 15.1192 11.5557 14.9226C12.6285 12.9583 14.3555 10.9788 14.3555 9.02933V8.22849C14.3555 8.01715 14.0936 7.2767 14.0788 7.23113ZM8.46781 10.873C7.71262 10.873 6.88601 10.4954 6.478 9.45252C6.41721 9.28651 6.42211 8.95384 6.42211 8.92336V8.45492C6.42211 7.12548 7.55093 6.52091 8.53295 6.52091C9.74192 6.52091 10.677 7.48815 10.677 8.69713C10.677 9.90606 9.67678 10.873 8.46781 10.873Z" fill="#4F4F4F"/>
    </symbol>
    <symbol id="address-primary" width="17" height="23" viewBox="0 0 17 23" fill="none" xmlns="http://www.w3.org/2000/svg">
        <path d="M14.0788 7.23113C14.0183 7.00434 13.8954 6.76268 13.8045 6.55111C12.7167 3.93689 10.3399 3 8.42078 3C5.85165 3 3.02206 4.72271 2.64429 8.27362V8.99909C2.64429 9.02937 2.65472 9.30134 2.66954 9.43738C2.88131 11.1297 4.21665 12.9282 5.21393 14.6205C6.28686 16.4336 7.40018 18.2171 8.50319 20C9.18332 18.8365 9.86101 17.6578 10.5257 16.5245C10.7068 16.1919 10.9171 15.8595 11.0984 15.542C11.2193 15.3306 11.4502 15.1192 11.5557 14.9226C12.6285 12.9583 14.3555 10.9788 14.3555 9.02933V8.22849C14.3555 8.01715 14.0936 7.2767 14.0788 7.23113ZM8.46781 10.873C7.71262 10.873 6.88601 10.4954 6.478 9.45252C6.41721 9.28651 6.42211 8.95384 6.42211 8.92336V8.45492C6.42211 7.12548 7.55093 6.52091 8.53295 6.52091C9.74192 6.52091 10.677 7.48815 10.677 8.69713C10.677 9.90606 9.67678 10.873 8.46781 10.873Z" fill="#D2170D"/>
    </symbol>

    <symbol id="fire" width="29" height="30" viewBox="0 0 29 30" fill="none" xmlns="http://www.w3.org/2000/svg">
        <path fill-rule="evenodd" clip-rule="evenodd" d="M6.54002 2.24158C5.59517 5.71827 7.68162 8.57607 9.78537 11.4517C13.2442 16.1851 16.7442 20.9753 9.11295 28.7622L7.90053 30L7.88918 28.2633C7.85134 22.2326 5.17952 18.6321 3.01794 15.7208C-0.284707 11.2712 -2.51548 8.26635 5.38384 1.51133L7.14975 9.53674e-06L6.54002 2.24158Z" fill="#D41E25"/>
        <path fill-rule="evenodd" clip-rule="evenodd" d="M21.8609 2.24158C20.9155 5.71827 23.0031 8.57607 25.1057 11.4517C28.5651 16.1851 32.065 20.9753 24.4338 28.7622L23.2214 30L23.2101 28.2633C23.1728 22.2326 20.5004 18.6321 18.3388 15.7208C15.0356 11.2712 12.8054 8.26635 20.7047 1.51133L22.4701 9.53674e-06L21.8609 2.24158Z" fill="#D41E25"/>
    </symbol>

    <symbol id="feature-1" width="92" height="92" viewBox="0 0 92 92" fill="none" xmlns="http://www.w3.org/2000/svg">
        <circle cx="46" cy="46" r="46" fill="#D2170D"/>
        <path d="M73.2446 55.8624L70.178 51.2624C70.0353 51.0492 69.796 50.9212 69.54 50.9212H66.4734V48.6212C66.4734 48.1982 66.1308 47.8546 65.7067 47.8546H51.1402C50.7161 47.8546 50.3735 48.1982 50.3735 48.6212V60.1211C50.3735 60.5441 50.7161 60.8878 51.1402 60.8878H53.8663C54.3985 61.8002 55.3766 62.4211 56.5068 62.4211C58.1979 62.4211 59.5735 61.0456 59.5735 59.3545C59.5735 57.6633 58.1979 56.2878 56.5068 56.2878C54.8157 56.2878 53.4402 57.6633 53.4402 59.3545H51.9069V52.4545H63.4068C63.8308 52.4545 64.1734 52.1109 64.1734 51.6879C64.1734 51.2648 63.8308 50.9212 63.4068 50.9212H51.9069V49.3879H64.9401V59.3545H61.8734C61.4494 59.3545 61.1068 59.6981 61.1068 60.1211C61.1068 60.5441 61.4494 60.8878 61.8734 60.8878H65.3662C65.8984 61.8002 66.8765 62.4211 68.0067 62.4211C69.6978 62.4211 71.0734 61.0456 71.0734 59.3545C71.0734 57.6633 69.6978 56.2878 68.0067 56.2878C67.4454 56.2878 66.9266 56.4504 66.4734 56.7139V52.4545H69.13L70.152 53.9879H69.54C69.1159 53.9879 68.7733 54.3315 68.7733 54.7545C68.7733 55.1776 69.1159 55.5212 69.54 55.5212H71.0733C71.1048 55.5212 71.1315 55.5065 71.1623 55.5034L71.84 56.5199V59.3542C71.84 59.7772 72.1826 60.1209 72.6066 60.1209C73.0307 60.1209 73.3733 59.7772 73.3733 59.3542V56.2876C73.3733 56.1366 73.3281 55.9877 73.2446 55.8621L73.2446 55.8624ZM56.5069 57.8211C57.3526 57.8211 58.0402 58.5087 58.0402 59.3544C58.0402 60.2001 57.3526 60.8877 56.5069 60.8877C55.6612 60.8877 54.9736 60.2001 54.9736 59.3544C54.9736 58.5087 55.6612 57.8211 56.5069 57.8211ZM68.0068 57.8211C68.8525 57.8211 69.5401 58.5087 69.5401 59.3544C69.5401 60.2001 68.8525 60.8877 68.0068 60.8877C67.1611 60.8877 66.4735 60.2001 66.4735 59.3544C66.4735 58.5087 67.1611 57.8211 68.0068 57.8211Z" fill="white"/>
        <path d="M38.8739 47.8549C38.8739 46.5868 37.842 45.555 36.5739 45.555H31.9739C31.5509 45.555 31.2073 45.8986 31.2073 46.3216C31.2073 46.7446 31.5509 47.0883 31.9739 47.0883H33.5073V48.6216C33.5073 49.0446 33.8509 49.3883 34.2739 49.3883C34.6969 49.3883 35.0406 49.0446 35.0406 48.6216V47.0883H36.5739C36.9962 47.0883 37.3406 47.4326 37.3406 47.8549V52.4549C37.3406 52.8772 36.9962 53.2216 36.5739 53.2216H31.9739C31.5509 53.2216 31.2073 53.5652 31.2073 53.9882C31.2073 54.4112 31.5509 54.7549 31.9739 54.7549H33.5073V56.2882C33.5073 56.7112 33.8509 57.0549 34.2739 57.0549C34.6969 57.0549 35.0406 56.7112 35.0406 56.2882V54.7549H36.5739C36.9962 54.7549 37.3406 55.0992 37.3406 55.5215V60.1215C37.3406 60.5438 36.9962 60.8882 36.5739 60.8882H31.9739C31.5509 60.8882 31.2073 61.2318 31.2073 61.6548C31.2073 62.0778 31.5509 62.4215 31.9739 62.4215H36.5739C37.842 62.4215 38.8739 61.3896 38.8739 60.1215V55.5215C38.8739 54.9305 38.6432 54.3962 38.276 53.9882C38.6439 53.5802 38.8739 53.046 38.8739 52.4549V47.8549Z" fill="white"/>
        <path d="M45.0072 53.2215H40.4073C39.9843 53.2215 39.6406 53.5652 39.6406 53.9882C39.6406 54.4112 39.9843 54.7549 40.4073 54.7549H41.9406V56.2882C41.9406 56.7112 42.2842 57.0549 42.7073 57.0549C43.1303 57.0549 43.4739 56.7112 43.4739 56.2882V54.7549H45.0072C45.4296 54.7549 45.7739 55.0992 45.7739 55.5215V60.1215C45.7739 60.5438 45.4296 60.8882 45.0072 60.8882H40.4073C39.9843 60.8882 39.6406 61.2318 39.6406 61.6548C39.6406 62.0778 39.9843 62.4215 40.4073 62.4215H45.0072C46.2753 62.4215 47.3072 61.3896 47.3072 60.1215V55.5215C47.3072 54.2534 46.2753 53.2215 45.0072 53.2215Z" fill="white"/>
        <path d="M48.8404 38.655H39.6404C39.2174 38.655 38.8738 38.3114 38.8738 37.8883V34.8217C38.8738 34.3987 39.2174 34.055 39.6404 34.055H48.8404C49.2634 34.055 49.607 34.3987 49.607 34.8217V37.8883C49.607 38.3114 49.2634 38.655 48.8404 38.655ZM40.4071 37.1217H48.0737V35.5884H40.4071V37.1217Z" fill="white"/>
        <path d="M63.6408 31.791L44.4743 25.6577C44.3224 25.6094 44.1591 25.6094 44.0075 25.6577L24.8401 31.791C24.5229 31.893 24.3073 32.188 24.3073 32.5217V61.6548C24.3073 62.0778 24.6509 62.4214 25.0739 62.4214H29.6739C30.0969 62.4214 30.4405 62.0778 30.4405 61.6548V42.4883H58.0403V46.3216C58.0403 46.7446 58.3829 47.0882 58.8069 47.0882C59.231 47.0882 59.5736 46.7446 59.5736 46.3216V41.7216C59.5736 41.2986 59.231 40.955 58.8069 40.955H29.6739C29.2508 40.955 28.9072 41.2986 28.9072 41.7216V60.8881H25.8406V36.1482L44.2404 30.2604L60.873 35.5832C61.2792 35.7119 61.7077 35.4887 61.8368 35.0862C61.9665 34.683 61.744 34.2514 61.3408 34.1224L44.4743 28.7249C44.3224 28.6767 44.1591 28.6767 44.0075 28.7249L25.8407 34.5382V33.0816L44.2405 27.1937L62.6404 33.0816V46.3216C62.6404 46.7446 62.983 47.0882 63.407 47.0882C63.8311 47.0882 64.1737 46.7446 64.1737 46.3216V32.5217C64.1737 32.1883 63.9584 31.893 63.6408 31.791L63.6408 31.791Z" fill="white"/>
    </symbol>

    <symbol id="feature-2" width="92" height="92" viewBox="0 0 92 92" fill="none" xmlns="http://www.w3.org/2000/svg">
        <circle cx="46" cy="46" r="46" fill="#D2170D"/>
        <path d="M69.1552 38.8276H64.931V36.2931C64.931 36.0691 64.842 35.8541 64.6836 35.6957C64.5252 35.5373 64.3102 35.4483 64.0862 35.4483H59.8621V27.8448C59.8621 27.6208 59.7731 27.4058 59.6147 27.2474C59.4562 27.089 59.2413 27 59.0172 27H21.8448C21.3783 27 21 27.3783 21 27.8448V53.1897C21 53.4137 21.089 53.6287 21.2474 53.7871C21.4058 53.9455 21.6208 54.0345 21.8448 54.0345H48.0345V65.0172C48.0345 65.2413 48.1235 65.4563 48.2819 65.6147C48.4403 65.7731 48.6553 65.8621 48.8793 65.8621H69.1552C69.3792 65.8621 69.5942 65.7731 69.7526 65.6147C69.911 65.4562 70 65.2413 70 65.0172V39.6724C70 39.4484 69.911 39.2334 69.7526 39.075C69.5942 38.9166 69.3792 38.8276 69.1552 38.8276ZM63.2414 37.1379V38.8276H54.7931V37.1379H63.2414ZM43.8103 28.6897H48.8793V33.2363L46.7227 32.158C46.4848 32.0392 46.2049 32.0392 45.9669 32.158L43.8103 33.2363L43.8103 28.6897ZM32.8276 52.3448H22.6897V28.6897H32.8276V52.3448ZM34.5172 52.3448V28.6897H42.1207V34.6034C42.1207 34.8961 42.2723 35.1681 42.5212 35.3223C42.7705 35.4762 43.0813 35.4901 43.3434 35.3593L46.3448 33.8586L49.3462 35.3593C49.6084 35.4901 49.9191 35.4762 50.1684 35.3223C50.4173 35.168 50.569 34.8961 50.569 34.6034V28.6897H58.1724V35.4483H53.9483C53.4817 35.4483 53.1034 35.8266 53.1034 36.2931V38.8276H48.8793C48.4128 38.8276 48.0345 39.2059 48.0345 39.6724V52.3448H34.5172ZM68.3103 64.1724H49.7241V40.5172H68.3103V64.1724Z" fill="white"/>
        <path d="M65.7758 43.8966H57.3275C56.861 43.8966 56.4827 43.5183 56.4827 43.0517C56.4827 42.5852 56.861 42.2069 57.3275 42.2069H65.7758C66.2423 42.2069 66.6206 42.5852 66.6206 43.0517C66.6206 43.5183 66.2423 43.8966 65.7758 43.8966Z" fill="white"/>
        <path d="M65.7759 47.2759H52.2586C51.7921 47.2759 51.4138 46.8976 51.4138 46.431C51.4138 45.9645 51.7921 45.5862 52.2586 45.5862H65.7759C66.2424 45.5862 66.6207 45.9645 66.6207 46.431C66.6207 46.8976 66.2424 47.2759 65.7759 47.2759Z" fill="white"/>
        <path d="M60.7069 50.6552H52.2586C51.7921 50.6552 51.4138 50.2769 51.4138 49.8103C51.4138 49.3438 51.7921 48.9655 52.2586 48.9655H60.7069C61.1735 48.9655 61.5517 49.3438 61.5517 49.8103C61.5517 50.2769 61.1735 50.6552 60.7069 50.6552Z" fill="white"/>
        <path d="M65.7759 54.0345H52.2586C51.7921 54.0345 51.4138 53.6562 51.4138 53.1897C51.4138 52.7231 51.7921 52.3448 52.2586 52.3448H65.7759C66.2424 52.3448 66.6207 52.7231 66.6207 53.1897C66.6207 53.6562 66.2424 54.0345 65.7759 54.0345Z" fill="white"/>
        <path d="M53.9482 62.4828C53.6658 62.4828 53.4021 62.3417 53.2452 62.1067L51.5556 59.5723C51.4289 59.3856 51.3817 59.1563 51.4247 58.9349C51.4681 58.7135 51.5978 58.5189 51.7853 58.3936C51.9731 58.2684 52.2028 58.2235 52.4238 58.2688C52.6448 58.3144 52.8383 58.4461 52.9616 58.6346L53.9483 60.115L56.6246 56.1005V56.1002C56.8852 55.7166 57.4064 55.6148 57.7923 55.872C58.1781 56.1292 58.2845 56.6497 58.0307 57.0378L54.6513 62.1067C54.4945 62.3417 54.2308 62.4827 53.9483 62.4827L53.9482 62.4828Z" fill="white"/>
        <path d="M26.069 37.1379C26.069 37.6045 25.6908 37.9828 25.2242 37.9828C24.7577 37.9828 24.3794 37.6045 24.3794 37.1379C24.3794 36.6714 24.7577 36.2931 25.2242 36.2931C25.6908 36.2931 26.069 36.6714 26.069 37.1379Z" fill="white"/>
        <path d="M25.2242 34.6035C24.7577 34.6035 24.3794 34.2252 24.3794 33.7586V31.2241C24.3794 30.7576 24.7577 30.3793 25.2242 30.3793H27.7587C28.2252 30.3793 28.6035 30.7576 28.6035 31.2241C28.6035 31.6907 28.2252 32.069 27.7587 32.069H26.069V33.7586C26.069 33.9827 25.98 34.1976 25.8216 34.356C25.6632 34.5144 25.4483 34.6035 25.2242 34.6035Z" fill="white"/>
        <path d="M37.8964 37.1379C37.8964 37.6045 37.5182 37.9828 37.0516 37.9828C36.5851 37.9828 36.2068 37.6045 36.2068 37.1379C36.2068 36.6714 36.5851 36.2931 37.0516 36.2931C37.5182 36.2931 37.8964 36.6714 37.8964 37.1379Z" fill="white"/>
        <path d="M37.0516 34.6035C36.5851 34.6035 36.2068 34.2252 36.2068 33.7586V31.2241C36.2068 30.7576 36.5851 30.3793 37.0516 30.3793H39.5861C40.0526 30.3793 40.4309 30.7576 40.4309 31.2241C40.4309 31.6907 40.0526 32.069 39.5861 32.069H37.8964V33.7586C37.8964 33.9827 37.8074 34.1976 37.649 34.356C37.4906 34.5144 37.2756 34.6035 37.0516 34.6035Z" fill="white"/>
        <path d="M42.1206 50.6552H37.0516C36.5851 50.6552 36.2068 50.2769 36.2068 49.8103V46.431C36.2068 45.9645 36.5851 45.5862 37.0516 45.5862H42.1206C42.3446 45.5862 42.5596 45.6752 42.718 45.8336C42.8764 45.992 42.9654 46.207 42.9654 46.431V49.8103C42.9654 50.0344 42.8764 50.2494 42.718 50.4078C42.5596 50.5662 42.3446 50.6552 42.1206 50.6552ZM37.8964 48.9655H41.2758V47.2759H37.8964V48.9655Z" fill="white"/>
    </symbol>

    <symbol id="feature-3" width="92" height="92" viewBox="0 0 92 92" fill="none" xmlns="http://www.w3.org/2000/svg">
        <circle cx="46" cy="46" r="46" fill="#D2170D"/>
        <path d="M30.9836 59.4001C30.334 59.4001 29.7105 59.142 29.2512 58.6826C28.7919 58.2233 28.5337 57.5998 28.5337 56.9502C28.5337 56.3006 28.7918 55.677 29.2512 55.2178C29.7106 54.7585 30.334 54.5003 30.9836 54.5003C31.6332 54.5003 32.2568 54.7584 32.7161 55.2178C33.1754 55.6771 33.4336 56.3006 33.4336 56.9502C33.4328 57.5999 33.1744 58.2226 32.7154 58.682C32.256 59.141 31.6333 59.3995 30.9836 59.4002L30.9836 59.4001ZM30.9836 56.1335C30.6533 56.1335 30.3555 56.3326 30.2293 56.6377C30.1028 56.9429 30.1724 57.2939 30.4061 57.5277C30.6398 57.7614 30.9909 57.831 31.2961 57.7045C31.6012 57.5783 31.8003 57.2805 31.8003 56.9502C31.7999 56.4992 31.4346 56.1339 30.9836 56.1335Z" fill="white"/>
        <path d="M62.0168 59.4001C61.3672 59.4001 60.7437 59.142 60.2844 58.6826C59.8251 58.2233 59.5669 57.5998 59.5669 56.9502C59.5669 56.3006 59.825 55.677 60.2844 55.2178C60.7438 54.7585 61.3672 54.5003 62.0168 54.5003C62.6664 54.5003 63.29 54.7584 63.7493 55.2178C64.2086 55.6771 64.4668 56.3006 64.4668 56.9502C64.4661 57.5999 64.2076 58.2226 63.7486 58.682C63.2892 59.141 62.6665 59.3995 62.0168 59.4002L62.0168 59.4001ZM62.0168 56.1335C61.6865 56.1335 61.3887 56.3326 61.2625 56.6377C61.136 56.9429 61.2056 57.2939 61.4393 57.5277C61.673 57.7614 62.0241 57.831 62.3293 57.7045C62.6344 57.5783 62.8335 57.2805 62.8335 56.9502C62.8331 56.4992 62.4678 56.1339 62.0168 56.1335Z" fill="white"/>
        <path d="M70.9367 45.2023L66.8534 35.4024C66.7265 35.0983 66.4294 34.9 66.0998 34.9H54.6665V30.8167C54.6665 30.6001 54.5805 30.3923 54.4274 30.2392C54.2743 30.086 54.0664 30 53.8499 30H22.8167C22.6001 30 22.3923 30.086 22.2392 30.2392C22.086 30.3923 22 30.6001 22 30.8167V56.9499C22 57.1665 22.086 57.3743 22.2392 57.5274C22.3923 57.6805 22.6001 57.7666 22.8167 57.7666H25.3319C25.5937 59.5953 26.7242 61.1845 28.3663 62.0314C30.0081 62.8783 31.9585 62.8783 33.6003 62.0314C35.2424 61.1845 36.3729 59.5952 36.6347 57.7666H56.3653C56.6271 59.5953 57.7576 61.1845 59.3997 62.0314C61.0415 62.8783 62.9919 62.8783 64.6337 62.0314C66.2758 61.1845 67.4063 59.5952 67.6681 57.7666H70.1833C70.3999 57.7666 70.6077 57.6805 70.7608 57.5274C70.914 57.3743 71 57.1665 71 56.9499V45.5166C71 45.4087 70.9785 45.3019 70.9369 45.2023H70.9367ZM30.9837 61.0335C29.9008 61.0335 28.8622 60.6033 28.0962 59.8377C27.3305 59.0717 26.9004 58.033 26.9004 56.9502C26.9004 55.8673 27.3306 54.8287 28.0962 54.0626C28.8621 53.297 29.9008 52.8668 30.9837 52.8668C32.0665 52.8668 33.1052 53.297 33.8712 54.0626C34.6368 54.8286 35.067 55.8673 35.067 56.9502C35.0659 58.0326 34.635 59.0706 33.8697 59.8362C33.1041 60.6015 32.0662 61.0324 30.9837 61.0335ZM53.0336 56.1335H36.635C36.3732 54.3047 35.2427 52.7155 33.6006 51.8686C31.9588 51.0217 30.0084 51.0217 28.3666 51.8686C26.7245 52.7156 25.594 54.3048 25.3322 56.1335H23.6336V49.6002H53.0335L53.0336 56.1335ZM53.0336 47.9669H23.6337V31.6336H53.0336V47.9669ZM66.9169 39.8002L68.9585 44.7002H57.9341V39.8002H66.9169ZM62.0173 61.0335C60.9344 61.0335 59.8958 60.6033 59.1297 59.8377C58.3641 59.0717 57.934 58.033 57.934 56.9502C57.934 55.8673 58.3642 54.8287 59.1297 54.0626C59.8957 53.297 60.9344 52.8668 62.0173 52.8668C63.1001 52.8668 64.1387 53.297 64.9048 54.0626C65.6704 54.8286 66.1006 55.8673 66.1006 56.9502C66.0995 58.0326 65.6686 59.0706 64.9033 59.8362C64.1377 60.6015 63.0998 61.0324 62.0173 61.0335ZM69.3673 56.1335H67.6687C67.4069 54.3047 66.2763 52.7155 64.6342 51.8686C62.9925 51.0217 61.042 51.0217 59.4003 51.8686C57.7582 52.7156 56.6277 54.3048 56.3659 56.1335H54.6673V36.5336H65.5555L66.2362 38.1669H57.1169C56.9004 38.1669 56.6926 38.2529 56.5394 38.4061C56.3863 38.5592 56.3003 38.767 56.3003 38.9836V45.5169C56.3003 45.7334 56.3863 45.9412 56.5394 46.0944C56.6926 46.2475 56.9004 46.3335 57.1169 46.3335H69.3669L69.3673 56.1335Z" fill="white"/>
        <path d="M44.0502 33.2669H32.617C32.4004 33.2669 32.1926 33.353 32.0395 33.5061C31.8863 33.6592 31.8003 33.867 31.8003 34.0836V45.5169C31.8003 45.7334 31.8863 45.9412 32.0395 46.0944C32.1926 46.2475 32.4004 46.3335 32.617 46.3335H44.0502C44.2668 46.3335 44.4746 46.2475 44.6277 46.0944C44.7809 45.9412 44.8669 45.7334 44.8669 45.5169V34.0836C44.8669 33.867 44.7809 33.6592 44.6277 33.5061C44.4746 33.353 44.2668 33.2669 44.0502 33.2669ZM39.1503 34.9002V36.5336H37.5169V34.9002H39.1503ZM43.2336 44.7002H33.4336V34.9002H35.8836V37.3502C35.8836 37.5668 35.9697 37.7746 36.1228 37.9277C36.2759 38.0809 36.4837 38.1669 36.7003 38.1669H39.9669C40.1835 38.1669 40.3913 38.0809 40.5444 37.9277C40.6975 37.7746 40.7836 37.5668 40.7836 37.3502V34.9002H43.2336V44.7002Z" fill="white"/>
        <path d="M26.0838 36.5336C25.8672 36.5336 25.6594 36.4475 25.5063 36.2944C25.3531 36.1413 25.2671 35.9335 25.2671 35.7169V34.0836C25.2671 33.867 25.3531 33.6592 25.5063 33.5061C25.6594 33.353 25.8672 33.2669 26.0838 33.2669H28.5337C28.9847 33.2669 29.3504 33.6326 29.3504 34.0836C29.3504 34.5346 28.9847 34.9002 28.5337 34.9002H26.9004V35.7169C26.9004 35.9335 26.8144 36.1413 26.6613 36.2944C26.5081 36.4475 26.3003 36.5336 26.0838 36.5336Z" fill="white"/>
        <path d="M26.9004 38.9836C26.9004 39.4345 26.5347 39.8002 26.0838 39.8002C25.6328 39.8002 25.2671 39.4345 25.2671 38.9836C25.2671 38.5326 25.6328 38.1669 26.0838 38.1669C26.5347 38.1669 26.9004 38.5326 26.9004 38.9836Z" fill="white"/>
    </symbol>

    <symbol id="feature-4" width="92" height="92" viewBox="0 0 92 92" fill="none" xmlns="http://www.w3.org/2000/svg">
        <circle cx="46" cy="46" r="46" fill="#D2170D"/>
        <path d="M58.1452 38.3871C57.671 38.3871 57.3549 38.7032 57.3549 39.1774V40.6C57.3549 41.0742 57.671 41.3903 58.1452 41.3903C58.6194 41.3903 58.9355 41.0742 58.9355 40.6V39.1774C58.9355 38.7032 58.5403 38.3871 58.1452 38.3871Z" fill="white"/>
        <path d="M50.7162 42.5754C50.8742 42.1802 50.6371 41.706 50.242 41.5479C49.8468 41.3899 49.3726 41.627 49.2145 42.0221C48.9775 42.7334 48.5033 43.3657 47.871 43.8399C47.871 42.4963 46.1323 41.706 45.8162 41.5479C45.5791 41.4689 45.342 41.4689 45.1839 41.5479C44.8678 41.785 43.1291 42.5754 43.1291 43.9189C42.1807 43.2076 41.5484 42.1012 41.5484 40.7576C41.5484 40.4415 41.6275 39.7302 42.2597 38.3076C42.6549 39.4141 43.2081 39.9673 43.9194 39.9673C45.7371 39.9673 46.2113 36.0157 46.2904 33.8818C47.3178 35.5415 48.5823 37.7544 49.2145 39.4141C49.3726 39.8092 49.8468 40.0463 50.242 39.8883C50.6371 39.7302 50.8742 39.256 50.7162 38.8608C49.6097 35.6996 46.3694 30.9576 46.2113 30.7996C45.7371 30.0092 44.4726 30.5625 44.7097 31.3528C44.8678 31.827 44.7887 32.3012 44.7887 32.7754C44.7887 35.5415 44.3145 37.3592 43.9984 38.0705C43.8404 37.7544 43.6033 37.0431 43.4452 35.8576C43.3662 35.5415 43.1291 35.2254 42.8129 35.2254C42.4968 35.1463 42.1807 35.3044 41.9436 35.6205C40.6 37.9915 39.9678 39.6512 39.9678 40.7576C39.9678 43.8399 42.4178 46.2899 45.5 46.2899C47.871 46.2899 49.9258 44.7883 50.7162 42.5754ZM45.5 44.7092C45.0258 44.7092 44.7097 44.3931 44.7097 43.9189C44.7097 43.7608 45.1049 43.4447 45.5 43.2076C45.8952 43.4447 46.2904 43.7608 46.2904 43.9189C46.2904 44.3931 45.8952 44.7092 45.5 44.7092Z" fill="white"/>
        <path d="M25.1097 21H21.7903C21.3161 21 21 21.3161 21 21.7903C21 22.2645 21.3161 22.5806 21.7903 22.5806H25.1097C25.5839 22.5806 25.9 22.2645 25.9 21.7903C25.9 21.3161 25.5048 21 25.1097 21Z" fill="white"/>
        <path d="M36.8064 23.371V24.1613C35.937 24.1613 35.2257 24.8726 35.2257 25.7419V27.3226H34.5144C33.1709 27.3226 32.0644 28.429 32.0644 29.7726V56.3274C32.0644 56.8016 32.3806 57.1177 32.8548 57.1177C33.329 57.1177 33.6451 56.8016 33.6451 56.3274V29.7726C33.6451 29.2984 34.0403 28.9032 34.5144 28.9032H56.4068C56.881 28.9032 57.3552 29.2984 57.3552 29.7726V35.4629C57.3552 35.9371 57.6714 36.2532 58.1455 36.2532C58.6197 36.2532 58.9359 35.9371 58.9359 35.4629V29.7726C58.9359 28.429 57.8294 27.3226 56.4068 27.3226H39.9681V25.7419C39.9681 24.8726 39.2568 24.1613 38.3875 24.1613V23.371C38.3875 22.0274 37.3601 21 36.0165 21H28.3504C27.8762 21 27.5601 21.3161 27.5601 21.7903C27.5601 22.2645 27.8762 22.5806 28.3504 22.5806H36.0165C36.4907 22.5806 36.8068 22.8968 36.8068 23.371H36.8064ZM38.387 25.7419V27.3226H36.8064V25.7419H38.387Z" fill="white"/>
        <path d="M69.2097 68.4193H61.6226C61.1484 68.4193 60.8323 68.7355 60.8323 69.2097C60.8323 69.6839 61.1484 70 61.6226 70H69.2097C69.6839 70 70 69.6839 70 69.2097C70 68.7355 69.6839 68.4193 69.2097 68.4193Z" fill="white"/>
        <path d="M58.5407 68.4194H54.9843C54.5101 68.4194 54.1939 68.0242 54.1939 67.629V66.8387C55.0633 66.8387 55.7746 66.1274 55.7746 65.2581V63.6774H56.4068C57.0391 63.6774 57.6714 63.4403 58.1456 62.9661C58.6197 62.4919 58.8568 61.8597 58.8568 61.2274V43.9198C58.8568 43.4456 58.5407 43.1295 58.0665 43.1295C57.5923 43.1295 57.2762 43.4456 57.2762 43.9198V61.1488C57.2762 61.3859 57.1972 61.623 57.0391 61.7811C56.881 61.9392 56.6439 62.0182 56.4068 62.0182H34.5145C34.0403 62.0182 33.6451 61.623 33.6451 61.0698V59.7263C33.6451 59.2521 33.329 58.9359 32.8548 58.9359C32.3806 58.9359 32.0645 59.2521 32.0645 59.7263V61.1488C32.0645 62.4924 33.1709 63.6779 34.5145 63.6779H35.2257V63.994C35.2257 64.4682 35.5419 64.7843 36.0161 64.7843C36.4903 64.7843 36.8064 64.4682 36.8064 63.994V63.6779H38.387V65.2585H36.8064C36.3322 65.2585 36.0161 65.5746 36.0161 66.0488C36.0161 66.523 36.3322 66.8392 36.8064 66.8392V67.6295C36.8064 68.973 37.9128 70.0005 39.1774 70.0005H50.2419C50.7161 70.0005 51.0322 69.6843 51.0322 69.2101C51.0322 68.7359 50.7161 68.4198 50.2419 68.4198H39.1774C38.7032 68.4198 38.387 68.0246 38.387 67.6295V66.8392C39.2564 66.8392 39.9677 66.1279 39.9677 65.2585V63.6779H51.0322V65.2585C51.0322 66.1279 51.7435 66.8392 52.6128 66.8392V67.6295C52.6128 68.973 53.7193 70.0005 54.9838 70.0005H58.4612C58.9354 70.0005 59.2516 69.6843 59.2516 69.2101C59.2516 68.7359 58.9354 68.4198 58.5403 68.4198L58.5407 68.4194ZM52.6133 65.2581V63.6774H54.1939V65.2581H52.6133Z" fill="white"/>
        <path d="M46.2904 48.6613C46.2904 48.1871 45.9742 47.871 45.5 47.871C45.0258 47.871 44.7097 48.1871 44.7097 48.6613V54.9839C44.7097 55.4581 45.0258 55.7742 45.5 55.7742C45.9742 55.7742 46.2904 55.4581 46.2904 54.9839V48.6613Z" fill="white"/>
        <path d="M51.0323 48.6613C51.0323 48.1871 50.7162 47.871 50.242 47.871C49.7678 47.871 49.4517 48.1871 49.4517 48.6613V54.9839C49.4517 55.4581 49.7678 55.7742 50.242 55.7742C50.7162 55.7742 51.0323 55.4581 51.0323 54.9839V48.6613Z" fill="white"/>
        <path d="M41.5484 48.6613C41.5484 48.1871 41.2323 47.871 40.7581 47.871C40.2839 47.871 39.9678 48.1871 39.9678 48.6613V54.9839C39.9678 55.4581 40.2839 55.7742 40.7581 55.7742C41.2323 55.7742 41.5484 55.4581 41.5484 54.9839V48.6613Z" fill="white"/>
        <path d="M36.8065 32.0645H39.1774C39.6516 32.0645 39.9678 31.7484 39.9678 31.2742C39.9678 30.8 39.6516 30.4839 39.1774 30.4839H36.6484C35.8581 30.4839 35.2258 31.1161 35.2258 31.9065V34.4355C35.2258 34.9097 35.542 35.2258 36.0162 35.2258C36.4903 35.2258 36.8065 34.9097 36.8065 34.4355V32.0645Z" fill="white"/>
        <path d="M36.0162 36.8065C35.542 36.8065 35.2258 37.1226 35.2258 37.5968V39.1774C35.2258 39.6516 35.542 39.9677 36.0162 39.9677C36.4903 39.9677 36.8065 39.6516 36.8065 39.1774V37.5968C36.8065 37.1226 36.4903 36.8065 36.0162 36.8065Z" fill="white"/>
        <path d="M54.1936 58.1452V58.9355H53.4032C52.929 58.9355 52.6129 59.2516 52.6129 59.7258C52.6129 60.2 52.929 60.5161 53.4032 60.5161H54.4307C55.1419 60.5161 55.7742 59.9629 55.7742 59.1726V58.1452C55.7742 57.671 55.4581 57.3548 54.9839 57.3548C54.5097 57.3548 54.1936 57.671 54.1936 58.1452Z" fill="white"/>
        <path d="M46.2904 59.7258C46.2904 60.1622 45.9365 60.5161 45.5 60.5161C45.0636 60.5161 44.7097 60.1622 44.7097 59.7258C44.7097 59.2894 45.0636 58.9355 45.5 58.9355C45.9365 58.9355 46.2904 59.2894 46.2904 59.7258Z" fill="white"/>
        <path d="M49.4516 59.7258C49.4516 60.1622 49.0977 60.5161 48.6613 60.5161C48.2249 60.5161 47.871 60.1622 47.871 59.7258C47.871 59.2894 48.2249 58.9355 48.6613 58.9355C49.0977 58.9355 49.4516 59.2894 49.4516 59.7258Z" fill="white"/>
        <path d="M43.129 59.7258C43.129 60.1622 42.7751 60.5161 42.3387 60.5161C41.9022 60.5161 41.5483 60.1622 41.5483 59.7258C41.5483 59.2894 41.9022 58.9355 42.3387 58.9355C42.7751 58.9355 43.129 59.2894 43.129 59.7258Z" fill="white"/>
    </symbol>

    <symbol id="feature-5" width="92" height="92" viewBox="0 0 92 92" fill="none" xmlns="http://www.w3.org/2000/svg">
        <circle cx="46" cy="46" r="46" fill="#D2170D"/>
        <path d="M53.922 69.4682H22.5316V23.531H28.6566V26.5935H24.8285C24.405 26.5935 24.0628 26.9366 24.0628 27.3591V65.6401C24.0628 66.0625 24.405 66.4057 24.8285 66.4057H51.6251C52.0486 66.4057 52.3908 66.0625 52.3908 65.6401V59.5151H50.8595V64.8744H25.5941V28.1247H28.6566V28.8903C28.6566 30.1567 29.687 31.1872 30.9534 31.1872H46.2658C47.5322 31.1872 48.5627 30.1567 48.5627 28.8903V28.1247H50.8595V33.4841H52.3908V27.3591C52.3908 26.9366 52.0486 26.5935 51.6251 26.5935H48.5627V23.531H53.9356L53.922 33.4832L55.4532 33.4856L55.4669 23.5343C55.4676 23.1248 55.3083 22.7396 55.0191 22.4495C54.7296 22.1593 54.3455 22 53.9356 22H22.5312C21.6867 22 21 22.6867 21 23.5312V69.4684C21 70.313 21.6867 70.9996 22.5312 70.9996H53.9216C54.7662 70.9996 55.4529 70.313 55.4529 69.4684V59.5153H53.9216L53.922 69.4682ZM47.0314 23.531V28.8903C47.0314 29.3121 46.6883 29.656 46.2658 29.656H30.9534C30.531 29.656 30.1878 29.3121 30.1878 28.8903V23.531H47.0314Z" fill="white"/>
        <path d="M32.4846 25.8279H34.0159V27.3591H32.4846V25.8279Z" fill="white"/>
        <path d="M43.2034 25.8279H44.7346V27.3591H43.2034V25.8279Z" fill="white"/>
        <path d="M37.844 25.8279H39.3752V27.3591H37.844V25.8279Z" fill="white"/>
        <path d="M68.4688 35.0153H47.0315V36.5465H68.4688V40.3746H47.0315V41.9059H68.4688V44.9683H47.0315V46.4996H68.4688V56.4526H47.0315V57.9839H68.4688C69.3134 57.9839 70.0001 57.2972 70.0001 56.4526V36.5465C70.0001 35.702 69.3134 35.0153 68.4688 35.0153Z" fill="white"/>
        <path d="M63.875 48.0308H65.4062V49.5621H63.875V48.0308Z" fill="white"/>
        <path d="M60.8125 48.0308H62.3437V49.5621H60.8125V48.0308Z" fill="white"/>
        <path d="M57.75 48.0308H59.2812V49.5621H57.75V48.0308Z" fill="white"/>
        <path d="M47.0315 52.6245H51.6252V54.1558H47.0315V52.6245Z" fill="white"/>
        <path d="M53.1562 52.6245H59.2812V54.1558H53.1562V52.6245Z" fill="white"/>
        <path d="M39.6447 34.2978C39.4694 34.2318 39.2766 34.2342 39.1003 34.3002L29.1472 38.1283C28.8519 38.2425 28.6567 38.5265 28.6567 38.8433V53.3901C28.6567 53.6283 28.7678 53.8525 28.9562 53.9964L38.9092 61.6526C39.0463 61.7589 39.2107 61.8119 39.3754 61.8119C39.5415 61.8119 39.7076 61.7582 39.8447 61.6513L45.9696 56.8897L45.0304 55.6808L39.3724 60.0787L30.1884 53.0135V39.3697L39.3794 35.8349L45.2319 38.0299L45.7703 36.5957L39.6447 34.2978Z" fill="white"/>
        <path d="M38.5458 47.6502L37.6196 46.7239L36.5371 47.8064L38.0683 49.3376C38.2112 49.4815 38.4064 49.5618 38.6094 49.5618C38.6241 49.5618 38.6378 49.5618 38.6521 49.5611C38.8688 49.5488 39.0719 49.4449 39.2079 49.2747L42.2704 45.4466L41.0744 44.4903L38.5458 47.6502Z" fill="white"/>
        <path d="M39.3752 41.1403C35.9979 41.1403 33.2502 43.8879 33.2502 47.2652C33.2502 50.6425 35.9979 53.3902 39.3752 53.3902C42.7525 53.3902 45.5002 50.6425 45.5002 47.2652C45.5002 43.8879 42.7525 41.1403 39.3752 41.1403ZM39.3752 51.8589C36.8418 51.8589 34.7815 49.7986 34.7815 47.2652C34.7815 44.7318 36.8418 42.6715 39.3752 42.6715C41.9086 42.6715 43.9689 44.7318 43.9689 47.2652C43.9689 49.7986 41.9086 51.8589 39.3752 51.8589Z" fill="white"/>
    </symbol>

    <symbol id="feature-6" width="92" height="92" viewBox="0 0 92 92" fill="none" xmlns="http://www.w3.org/2000/svg">
        <circle cx="46" cy="46" r="46" fill="#D2170D"/>
        <path d="M50.2376 43.1784C49.9288 43.1767 49.6471 43.3541 49.5157 43.6336C49.384 43.9127 49.4261 44.2429 49.6241 44.4802C49.6241 44.4802 50.8394 45.9839 52.4696 47.7037C54.0995 49.4235 56.1086 51.365 57.9372 52.3282C59.0498 52.914 60.2145 52.9087 61.1358 53.044C62.5056 53.2456 63.6572 52.9647 64.3809 53.27C65.5434 53.7607 66.61 54.7341 67.316 55.8396C67.9111 56.7716 68.118 58.0606 68.3234 59.3915C68.3645 59.6571 68.3361 59.9246 68.345 60.3525L64.9663 57.0235V57.0238C64.6585 56.7192 64.1633 56.7178 63.8537 57.0206L60.0659 60.7368C59.7743 61.022 59.7464 61.4814 60.001 61.7999L62.8462 65.3425C62.1838 65.4108 61.3999 65.4378 61.0641 65.3666C59.3978 65.0169 57.7362 64.205 56.5449 63.0482C55.835 62.3588 55.2994 61.3759 55.0819 60.395C54.9614 59.8523 54.9738 58.9777 54.9115 58.0921C54.8488 57.2062 54.7287 56.2236 53.9816 55.5073C51.5087 53.1358 50.2746 52.0482 50.2746 52.0482C50.117 51.9072 49.9098 51.835 49.6987 51.8474C49.4875 51.8598 49.2902 51.9558 49.1503 52.1145C49.0104 52.2728 48.9395 52.4807 48.9534 52.6915C48.9672 52.9026 49.0646 53.0992 49.224 53.2381C49.224 53.2381 50.4237 54.2941 52.8814 56.6507C53.1077 56.8679 53.2728 57.4279 53.3277 58.2037C53.3826 58.9794 53.3458 59.8841 53.5353 60.7389C53.8208 62.0257 54.4818 63.2596 55.4385 64.1887C56.8877 65.5961 58.803 66.5132 60.7385 66.9194C61.5057 67.0806 62.3797 66.9991 63.1313 66.9134C63.883 66.8277 64.4891 66.7118 64.4891 66.7118C64.7622 66.6594 64.9882 66.4671 65.0839 66.2057C65.1799 65.9442 65.1317 65.6516 64.957 65.4349L61.6904 61.3683L64.4088 58.6995L68.6209 62.8497L68.6205 62.85C68.8441 63.0689 69.1756 63.1362 69.4668 63.0218C69.758 62.9074 69.9546 62.6322 69.9691 62.3197C69.9691 62.3197 70.0764 60.346 69.8915 59.149C69.6885 57.8334 69.5008 56.3117 68.6549 54.9865C67.7913 53.6341 66.5214 52.4495 64.9975 51.8067C63.6036 51.2183 62.2724 51.6051 61.3681 51.4719C60.3026 51.3146 59.3419 51.2735 58.6777 50.9232C57.2289 50.1599 55.2059 48.2796 53.6225 46.6087C52.0391 44.9378 50.8578 43.4813 50.8578 43.4813L50.8575 43.4809C50.708 43.2903 50.4798 43.1788 50.2376 43.1773L50.2376 43.1784Z" fill="white"/>
        <path d="M32.6134 22.0923C31.8461 21.9312 30.9722 22.0126 30.2205 22.0984C29.4688 22.1841 28.8627 22.2999 28.8627 22.2999V22.2996C28.5893 22.3523 28.3636 22.5443 28.2676 22.8058C28.172 23.0672 28.2202 23.3598 28.3948 23.5766L31.6614 27.6463L28.9431 30.3119L24.731 26.1617C24.5074 25.9403 24.1741 25.872 23.8815 25.9874C23.5886 26.1029 23.392 26.3803 23.3796 26.6948C23.3796 26.6948 23.2754 28.6654 23.4603 29.8624C23.6633 31.178 23.851 32.7029 24.697 34.0281C25.5606 35.3806 26.8305 36.5619 28.3544 37.2052C29.7482 37.7936 31.0795 37.4068 31.9838 37.54C32.5771 37.6274 33.1332 37.6136 33.5831 37.6611C34.033 37.7089 34.3245 37.8031 34.5066 37.971C35.4283 38.8198 37.9533 41.6965 37.9533 41.6965L37.9536 41.6968C38.242 42.0273 38.7436 42.0613 39.074 41.773C39.4045 41.4843 39.4385 40.9827 39.1498 40.6522C39.1498 40.6522 36.7315 37.8606 35.5824 36.8029C35.0259 36.2906 34.3405 36.1458 33.7507 36.0838C33.1605 36.0221 32.6136 36.0299 32.2133 35.9722C30.8436 35.7706 29.6951 36.0515 28.9711 35.7462C27.8085 35.2556 26.7388 34.2789 26.0328 33.1738C25.4377 32.2419 25.234 30.9528 25.0286 29.6219C24.9878 29.358 25.0158 29.0917 25.007 28.6673L28.3856 31.9932V31.9925C28.6941 32.2964 29.1894 32.2964 29.4983 31.9925L33.2861 28.2763H33.2857C33.5766 27.9905 33.6035 27.531 33.3477 27.2133L30.5054 23.6735C31.1678 23.6051 31.9485 23.575 32.2843 23.6434C33.9935 24.0022 35.7525 24.7139 36.7508 25.903C37.4227 26.7032 37.4978 28.1364 37.8482 29.6412C37.9573 30.1095 37.9045 30.818 37.907 31.5909C37.9102 32.3634 37.9903 33.2968 38.6817 34.0116C41.2853 36.7016 45.6401 40.9701 45.6401 40.9701L45.6405 40.9693C45.79 41.121 45.9944 41.2063 46.2073 41.206C46.4202 41.2053 46.6238 41.1195 46.7726 40.9672C46.9217 40.8149 47.0032 40.6095 46.999 40.3966C46.9947 40.1837 46.9051 39.9814 46.7503 39.8351C46.7503 39.8351 42.3947 35.5649 39.823 32.9078C39.5764 32.6534 39.4964 32.2429 39.4946 31.5875C39.4932 30.9322 39.5924 30.1267 39.3954 29.2815C39.1018 28.0205 39.1205 26.2578 37.9664 24.8834C36.5984 23.2535 34.5064 22.4881 32.6137 22.0906L32.6134 22.0923Z" fill="white"/>
        <path d="M49.2328 46.4974C49.0784 46.5056 48.9427 46.603 48.8853 46.7468C48.828 46.8906 48.8598 47.0546 48.9665 47.1669L54.7904 53.5147C54.8591 53.6001 54.9604 53.6532 55.0698 53.6613C55.1793 53.6695 55.287 53.6319 55.3678 53.5576C55.4485 53.4832 55.4949 53.379 55.496 53.2692C55.4967 53.1594 55.4524 53.0542 55.3731 52.9784L49.5521 46.6306C49.4717 46.5399 49.3541 46.4907 49.2329 46.4974H49.2328Z" fill="white"/>
        <path d="M36.7014 34.3786C36.5384 34.3761 36.3907 34.4736 36.3284 34.6237C36.2664 34.7743 36.3021 34.9475 36.4194 35.0605L41.7845 40.494C41.8582 40.5709 41.9595 40.6152 42.0658 40.6169C42.1724 40.6184 42.2748 40.5773 42.3509 40.5025C42.4267 40.4281 42.4696 40.3261 42.4696 40.2198C42.47 40.1132 42.4275 40.0112 42.3517 39.9365L36.9865 34.503C36.9121 34.4243 36.8094 34.3797 36.7014 34.3786Z" fill="white"/>
        <path d="M42.1107 42.0431C41.6389 41.9489 41.0874 41.9638 40.5982 42.2943C40.0456 42.6666 39.7753 43.244 39.6623 43.81C39.5493 44.3761 39.5816 44.9648 39.8203 45.5053C40.838 47.8088 43.4041 49.2666 44.9779 50.9357C45.2676 51.2428 45.669 51.383 46.0193 51.4036C46.3696 51.4217 46.6905 51.3558 46.9863 51.2424C47.5779 51.0207 48.0918 50.6611 48.4432 50.1422C48.7535 49.6838 48.8336 49.1649 48.7935 48.67C48.7532 48.1752 48.5902 47.6811 48.2232 47.2782C46.6352 45.5365 45.1283 44.2825 43.3632 42.6662C43.0115 42.3442 42.5828 42.1377 42.111 42.0431L42.1107 42.0431ZM41.7976 43.5992C41.9822 43.6353 42.1972 43.7491 42.2903 43.8348C44.0849 45.478 45.545 46.6955 47.0512 48.3477C47.1089 48.4107 47.1961 48.5967 47.2123 48.7968C47.2286 48.9973 47.172 49.1886 47.1287 49.2527C47.0434 49.3792 46.7097 49.6491 46.4281 49.7547C46.2874 49.8085 46.1649 49.8223 46.1149 49.8202C46.065 49.817 46.1086 49.8248 46.1309 49.8503C44.3289 47.9396 41.9517 46.4068 41.2708 44.8663C41.2018 44.7098 41.1642 44.3948 41.2181 44.1256C41.2719 43.8564 41.4055 43.6673 41.4848 43.6141C41.4958 43.6081 41.6134 43.5663 41.7979 43.6021L41.7976 43.5992Z" fill="white"/>
        <path d="M59.4119 29.918C54.289 34.3791 49.4295 39.3644 44.8718 44.9531L46.0992 45.9542C50.599 40.435 55.3969 35.5175 60.4533 31.114L59.4119 29.918Z" fill="white"/>
        <path d="M62.877 24.5687C62.6726 24.5687 62.476 24.6473 62.3283 24.7887C62.3283 24.7887 60.261 26.7819 59.0988 27.9129C58.7123 28.2891 58.57 28.7719 58.5349 29.2055C58.4995 29.6391 58.5657 30.0528 58.6929 30.4238C58.9546 31.1864 59.5366 31.779 60.3106 32.0387C61.0141 32.2743 61.9319 32.3348 62.6323 31.6388C63.7595 30.518 65.8342 28.3657 65.8342 28.3657L65.8338 28.3653C66.1307 28.0568 66.1293 27.5687 65.8307 27.2619L63.4471 24.8071C63.2972 24.6538 63.0914 24.5677 62.8768 24.5684L62.877 24.5687ZM62.861 26.4812L64.1536 27.8141C63.6411 28.3444 62.4247 29.6072 61.5129 30.5137C61.4934 30.5318 61.0743 30.6221 60.8154 30.5378C60.5866 30.4609 60.2741 30.1496 60.1923 29.9119C60.136 29.7482 60.1037 29.5141 60.1179 29.3384C60.1321 29.1627 60.1859 29.0717 60.2047 29.0536C61.1576 28.1262 62.3376 26.9891 62.8611 26.484L62.861 26.4812Z" fill="white"/>
        <path d="M40.1637 45.4473L37.5693 47.9733L38.6759 49.1079L41.2703 46.5848L40.1637 45.4473Z" fill="white"/>
        <path d="M44.7231 49.5135L42.1255 52.0395L43.2321 53.1769L45.8297 50.6509L44.7231 49.5135Z" fill="white"/>
        <path d="M36.4203 46.2744C36.207 46.2793 36.0048 46.37 35.8592 46.5255C35.8592 46.5255 27.0275 56.0136 21.7445 60.7119C20.9687 61.4019 20.9131 62.443 21.0718 63.303C21.2308 64.1631 21.595 64.9757 21.9209 65.5998C22.7933 67.2686 24.3619 68.7744 26.2974 69.2292C27.6218 69.5406 29.2418 69.3341 30.2835 68.231C35.964 62.2166 44.002 54.5125 44.002 54.5125V54.5129C44.1575 54.3641 44.2457 54.159 44.2471 53.944C44.2482 53.729 44.1621 53.5228 44.0083 53.3723L36.9942 46.5006C36.8412 46.3512 36.6347 46.2697 36.4207 46.2746L36.4203 46.2744ZM36.4451 48.1837L42.3249 53.9455C41.6941 54.5509 34.6184 61.3326 29.1306 67.1435C28.6539 67.6486 27.4885 67.8806 26.6603 67.6858C25.3326 67.3741 24.006 66.1676 23.3252 64.8654C23.0426 64.3245 22.7408 63.6093 22.631 63.0149C22.5212 62.4205 22.592 62.0798 22.7985 61.8959C27.9986 57.2715 35.7833 48.8948 36.4453 48.1838L36.4451 48.1837Z" fill="white"/>
        <path d="M34.613 48.9431L33.4849 50.0558L40.4277 57.0979L41.5559 55.9852L34.613 48.9431Z" fill="white"/>
        <path d="M33.9157 53.9706C33.1499 53.8572 32.4701 54.1541 31.9692 54.6213C29.5115 56.9149 28.3142 58.3818 25.795 60.9443C25.1949 61.5547 25.1468 62.3421 25.2899 63.0055C25.4309 63.6594 25.8283 64.2169 26.4429 64.5365C26.7582 64.7002 27.1237 64.8231 27.5339 64.8585C27.9441 64.8946 28.4425 64.8344 28.8573 64.4866C31.982 61.8547 33.4474 60.5883 35.6422 58.052C36.2964 57.2961 36.3294 56.3046 35.9645 55.4765C35.5834 54.6118 34.7836 54.0982 33.9156 53.9699L33.9157 53.9706ZM33.6862 55.5419C33.9894 55.5841 34.4173 55.9 34.5136 56.1183C34.6185 56.3559 34.5469 56.8894 34.4393 57.0141C32.3008 59.4852 30.9543 60.6467 27.8343 63.2751C27.857 63.257 27.8166 63.2932 27.6699 63.2783C27.5233 63.2662 27.3136 63.1989 27.174 63.1267C27.0554 63.065 26.8726 62.8249 26.8393 62.6708C26.7893 62.4398 26.8878 62.099 26.9293 62.0569C29.4843 59.4583 30.6554 58.0219 33.0539 55.7835C33.2182 55.6301 33.5519 55.5221 33.6862 55.5419L33.6862 55.5419Z" fill="white"/>
        <path d="M56.0485 55.173C55.8891 55.1808 55.7499 55.2836 55.6953 55.4334L55.0754 57.0699C55.0365 57.1688 55.039 57.2793 55.0818 57.3767C55.125 57.4738 55.2051 57.5496 55.3046 57.5875C55.4042 57.625 55.5143 57.6215 55.611 57.5772C55.7077 57.5329 55.7828 57.4518 55.8193 57.3519L56.4392 55.7154C56.4888 55.5896 56.4711 55.4472 56.3921 55.3374C56.3131 55.2276 56.1838 55.1656 56.0485 55.173V55.173Z" fill="white"/>
        <path d="M56.9445 55.942C56.7858 55.9494 56.6469 56.0508 56.5913 56.1995L55.4507 59.1255C55.4047 59.2247 55.4015 59.3384 55.4426 59.44C55.4833 59.5417 55.5641 59.6218 55.6661 59.6614C55.7681 59.7015 55.8818 59.6976 55.9806 59.6505C56.0795 59.6037 56.1546 59.518 56.1882 59.4138L57.3288 56.4879C57.3798 56.3628 57.3635 56.2204 57.2856 56.1099C57.208 55.9997 57.0794 55.9363 56.9445 55.942L56.9445 55.942Z" fill="white"/>
        <path d="M57.6137 57.4292C57.4404 57.437 57.2924 57.5564 57.2481 57.7239L56.2811 61.1457V61.1454C56.2446 61.2488 56.2527 61.3629 56.3034 61.4599C56.354 61.5573 56.4426 61.6293 56.5481 61.6587C56.6537 61.6884 56.7667 61.6732 56.8606 61.6165C56.9545 61.5598 57.0203 61.467 57.0434 61.3597L58.0104 57.9379C58.0465 57.8153 58.021 57.6828 57.9424 57.5822C57.8637 57.4813 57.7415 57.4246 57.6137 57.4299V57.4292Z" fill="white"/>
        <path d="M58.6248 58.7187C58.4509 58.7286 58.3039 58.8505 58.2621 59.0191L57.3942 62.3418C57.3673 62.4438 57.3822 62.5522 57.4353 62.6432C57.4888 62.7343 57.5759 62.8002 57.6776 62.8271C57.8902 62.8827 58.1073 62.7559 58.1629 62.5433L59.0308 59.2206C59.0648 59.0974 59.0375 58.9649 58.9567 58.8653C58.8763 58.7658 58.7527 58.7113 58.6248 58.7187L58.6248 58.7187Z" fill="white"/>
    </symbol>

    <symbol id="arrow-right" width="24" height="24" viewBox="0 0 24 24" fill="none" xmlns="http://www.w3.org/2000/svg">
        <path fill-rule="evenodd" clip-rule="evenodd" d="M12.7071 4.29289C12.3166 3.90237 11.6834 3.90237 11.2929 4.29289C10.9024 4.68342 10.9024 5.31658 11.2929 5.70711L16.5858 11H5C4.44772 11 4 11.4477 4 12C4 12.5523 4.44772 13 5 13H16.5858L11.2929 18.2929C10.9024 18.6834 10.9024 19.3166 11.2929 19.7071C11.6834 20.0976 12.3166 20.0976 12.7071 19.7071L19.7071 12.7071C20.0976 12.3166 20.0976 11.6834 19.7071 11.2929L12.7071 4.29289Z" fill="#1C1C1C"/>
    </symbol>

    <symbol id="arrow-left" width="24" height="24" viewBox="0 0 24 24" fill="none" xmlns="http://www.w3.org/2000/svg">
        <path fill-rule="evenodd" clip-rule="evenodd" d="M11.2929 4.29289C11.6834 3.90237 12.3166 3.90237 12.7071 4.29289C13.0976 4.68342 13.0976 5.31658 12.7071 5.70711L7.41421 11H19C19.5523 11 20 11.4477 20 12C20 12.5523 19.5523 13 19 13H7.41421L12.7071 18.2929C13.0976 18.6834 13.0976 19.3166 12.7071 19.7071C12.3166 20.0976 11.6834 20.0976 11.2929 19.7071L4.29289 12.7071C3.90237 12.3166 3.90237 11.6834 4.29289 11.2929L11.2929 4.29289Z" fill="#1C1C1C"/>
    </symbol>

    <symbol id="telegram-white" width="36" height="36" viewBox="0 0 36 36" fill="none" xmlns="http://www.w3.org/2000/svg">
        <path fill-rule="evenodd" clip-rule="evenodd" d="M36 18C36 27.9411 27.9411 36 18 36C8.0589 36 0 27.9411 0 18C0 8.0589 8.0589 0 18 0C27.9411 0 36 8.0589 36 18ZM12.0536 16.3511C10.2505 17.1384 8.39783 17.9473 6.70369 18.8805C5.81908 19.5282 6.99478 19.9864 8.09783 20.4161C8.27318 20.4844 8.44665 20.552 8.60978 20.6195C8.74553 20.6613 8.88352 20.7052 9.0234 20.7498C10.2502 21.1406 11.618 21.5765 12.809 20.9209C14.7655 19.797 16.6118 18.4977 18.4567 17.1994C19.0611 16.774 19.6654 16.3487 20.2733 15.9298C20.3018 15.9116 20.3339 15.8907 20.3691 15.868C20.887 15.5322 22.0518 14.7772 21.6209 15.8176C20.6021 16.9318 19.5108 17.918 18.4136 18.9098C17.6741 19.5781 16.9319 20.2489 16.2074 20.9629C15.5765 21.4756 14.9212 22.5066 15.6278 23.2246C17.2552 24.3638 18.908 25.4755 20.5599 26.5865C21.0974 26.948 21.635 27.3095 22.1714 27.6719C23.0805 28.3978 24.5014 27.8106 24.7013 26.6764C24.7901 26.1546 24.8794 25.6329 24.9686 25.1111C25.4618 22.2276 25.9552 19.343 26.391 16.4501C26.4503 15.9963 26.5174 15.5425 26.5846 15.0886C26.7474 13.9882 26.9105 12.8866 26.9614 11.7803C26.8301 10.6763 25.4915 10.9191 24.7466 11.1673C20.9177 12.6243 17.1271 14.1892 13.3514 15.7818C12.9237 15.9713 12.4901 16.1606 12.0536 16.3511Z" fill="white"/>
    </symbol>

    <symbol id="whatsapp-white" width="36" height="36" viewBox="0 0 36 36" fill="none" xmlns="http://www.w3.org/2000/svg">
        <path fill-rule="evenodd" clip-rule="evenodd" d="M18 36C8.05887 36 0 27.9411 0 18C0 8.05887 8.05887 0 18 0C27.9411 0 36 8.05887 36 18C36 27.9411 27.9411 36 18 36ZM18.5933 28.0144C24.4946 28.012 29.2942 23.2112 29.2966 17.3111C29.2977 14.4513 28.1854 11.7621 26.1647 9.73906C24.1439 7.7159 21.4565 6.60124 18.5932 6.6C12.6936 6.6 7.89209 11.4013 7.88974 17.3027C7.88893 19.1891 8.3818 21.0304 9.31846 22.6536L7.8 28.2L13.474 26.7116C15.0374 27.5643 16.7975 28.0138 18.5889 28.0144H18.5933Z" fill="white"/>
        <path fill-rule="evenodd" clip-rule="evenodd" d="M13.7368 24.7738L10.3698 25.657L11.2685 22.3742L11.0569 22.0376C10.1664 20.6212 9.69609 18.9842 9.69678 17.3032C9.69872 12.3982 13.6896 8.40771 18.5967 8.40771C20.9729 8.40854 23.2065 9.33506 24.8861 11.0166C26.5658 12.6982 27.4902 14.9333 27.4893 17.3104C27.4873 22.2157 23.4965 26.2066 18.5932 26.2066H18.5896C16.9932 26.206 15.4275 25.7771 14.0616 24.9666L13.7368 24.7738ZM23.9855 19.8562C23.9186 19.7447 23.7404 19.6777 23.4729 19.5438C23.2055 19.41 21.8906 18.7631 21.6454 18.6737C21.4003 18.5845 21.222 18.5399 21.0437 18.8076C20.8655 19.0753 20.3529 19.6777 20.1969 19.8562C20.0409 20.0347 19.8849 20.0571 19.6175 19.9232C19.3501 19.7893 18.4884 19.5069 17.4668 18.5958C16.6718 17.8866 16.135 17.0108 15.979 16.7431C15.823 16.4753 15.9624 16.3306 16.0963 16.1973C16.2166 16.0774 16.3637 15.8848 16.4975 15.7287C16.6312 15.5726 16.6757 15.461 16.7649 15.2826C16.854 15.104 16.8095 14.9479 16.7426 14.814C16.6757 14.6802 16.1409 13.3638 15.918 12.8283C15.7009 12.3068 15.4805 12.3774 15.3163 12.3692C15.1605 12.3614 14.982 12.3597 14.8037 12.3597C14.6254 12.3597 14.3357 12.4266 14.0906 12.6944C13.8454 12.9621 13.1545 13.6092 13.1545 14.9255C13.1545 16.2419 14.1128 17.5136 14.2466 17.692C14.3803 17.8706 16.1324 20.5719 18.8152 21.7303C19.4533 22.0059 19.9514 22.1704 20.3399 22.2937C20.9805 22.4973 21.5636 22.4685 22.0243 22.3996C22.5382 22.3229 23.6066 21.7527 23.8296 21.128C24.0523 20.5032 24.0523 19.9677 23.9855 19.8562Z" fill="white"/>
    </symbol>

    <symbol id="vk-white" width="36" height="36" viewBox="0 0 36 36" fill="none" xmlns="http://www.w3.org/2000/svg">
        <path fill-rule="evenodd" clip-rule="evenodd" d="M0 18C0 8.05887 8.05887 0 18 0C27.9411 0 36 8.05887 36 18C36 27.9411 27.9411 36 18 36C8.05887 36 0 27.9411 0 18ZM18.9416 23.9071C18.9416 23.9071 19.2881 23.8693 19.4656 23.6821C19.6281 23.5107 19.6224 23.1871 19.6224 23.1871C19.6224 23.1871 19.6008 21.6763 20.3155 21.4533C21.0198 21.2339 21.9241 22.9143 22.8838 23.5605C23.6088 24.049 24.1591 23.9421 24.1591 23.9421L26.7237 23.9071C26.7237 23.9071 28.0647 23.8259 27.4289 22.7908C27.3764 22.706 27.058 22.0248 25.5226 20.6255C23.914 19.1608 24.13 19.3977 26.0663 16.8637C27.2458 15.3206 27.7172 14.3785 27.5698 13.9757C27.4299 13.5904 26.5622 13.6927 26.5622 13.6927L23.6755 13.7102C23.6755 13.7102 23.4614 13.6816 23.3027 13.7747C23.1477 13.866 23.0472 14.0789 23.0472 14.0789C23.0472 14.0789 22.5908 15.2726 21.9814 16.2885C20.6958 18.4307 20.1821 18.5441 19.9718 18.4113C19.4825 18.1007 19.6046 17.1651 19.6046 16.5005C19.6046 14.4237 19.9257 13.5581 18.9801 13.3341C18.6665 13.2595 18.4354 13.2106 17.6325 13.2023C16.6024 13.1922 15.7309 13.206 15.237 13.4429C14.9083 13.6005 14.6547 13.9526 14.8097 13.9729C15.0003 13.9978 15.4323 14.0872 15.6614 14.3933C15.9572 14.7887 15.9469 15.6755 15.9469 15.6755C15.9469 15.6755 16.1169 18.1201 15.5497 18.4233C15.1609 18.6317 14.6275 18.2067 13.4809 16.2627C12.894 15.2671 12.4507 14.1665 12.4507 14.1665C12.4507 14.1665 12.3653 13.9609 12.2122 13.8503C12.0272 13.7167 11.769 13.6752 11.769 13.6752L9.02593 13.6927C9.02593 13.6927 8.61368 13.7038 8.46248 13.8798C8.3282 14.0356 8.45215 14.3592 8.45215 14.3592C8.45215 14.3592 10.5998 19.2917 13.032 21.7777C15.2623 24.0564 17.7941 23.9071 17.7941 23.9071H18.9416Z" fill="white"/>
    </symbol>

    <symbol id="telegram" width="36" height="36" viewBox="0 0 36 36" fill="none" xmlns="http://www.w3.org/2000/svg">
        <path fill-rule="evenodd" clip-rule="evenodd" d="M36 18C36 27.9411 27.9411 36 18 36C8.0589 36 0 27.9411 0 18C0 8.0589 8.0589 0 18 0C27.9411 0 36 8.0589 36 18ZM12.0536 16.3511C10.2505 17.1384 8.39783 17.9473 6.70369 18.8805C5.81908 19.5282 6.99478 19.9864 8.09783 20.4161C8.27318 20.4844 8.44665 20.552 8.60978 20.6195C8.74553 20.6613 8.88352 20.7052 9.0234 20.7498C10.2502 21.1406 11.618 21.5765 12.809 20.9209C14.7655 19.797 16.6118 18.4977 18.4567 17.1994C19.0611 16.774 19.6654 16.3487 20.2733 15.9298C20.3018 15.9116 20.3339 15.8907 20.3691 15.868C20.887 15.5322 22.0518 14.7772 21.6209 15.8176C20.6021 16.9318 19.5108 17.918 18.4136 18.9098C17.6741 19.5781 16.9319 20.2489 16.2074 20.9629C15.5765 21.4756 14.9212 22.5066 15.6278 23.2246C17.2552 24.3638 18.908 25.4755 20.5599 26.5865C21.0974 26.948 21.635 27.3095 22.1714 27.6719C23.0805 28.3978 24.5014 27.8106 24.7013 26.6764C24.7901 26.1546 24.8794 25.6329 24.9686 25.1111C25.4618 22.2276 25.9552 19.343 26.391 16.4501C26.4503 15.9963 26.5174 15.5425 26.5846 15.0886C26.7474 13.9882 26.9105 12.8866 26.9614 11.7803C26.8301 10.6763 25.4915 10.9191 24.7466 11.1673C20.9177 12.6243 17.1271 14.1892 13.3514 15.7818C12.9237 15.9713 12.4901 16.1606 12.0536 16.3511Z" fill="#D2170D"/>
    </symbol>

    <symbol id="whatsapp" width="36" height="36" viewBox="0 0 36 36" fill="none" xmlns="http://www.w3.org/2000/svg">
        <rect width="36" height="36" fill="#FDFDFD"/>
        <path fill-rule="evenodd" clip-rule="evenodd" d="M18 36C8.05887 36 0 27.9411 0 18C0 8.05887 8.05887 0 18 0C27.9411 0 36 8.05887 36 18C36 27.9411 27.9411 36 18 36ZM18.5933 28.0144C24.4946 28.012 29.2942 23.2112 29.2966 17.3111C29.2977 14.4513 28.1854 11.7621 26.1647 9.73906C24.1439 7.7159 21.4565 6.60124 18.5932 6.6C12.6936 6.6 7.89209 11.4013 7.88974 17.3027C7.88893 19.1891 8.3818 21.0304 9.31846 22.6536L7.8 28.2L13.474 26.7116C15.0374 27.5643 16.7975 28.0138 18.5889 28.0144H18.5933Z" fill="#D2170D"/>
        <path fill-rule="evenodd" clip-rule="evenodd" d="M13.7373 24.7739L10.3702 25.6572L11.269 22.3743L11.0574 22.0377C10.1669 20.6213 9.69658 18.9843 9.69727 17.3033C9.69921 12.3983 13.6901 8.40782 18.5972 8.40782C20.9734 8.40865 23.207 9.33516 24.8866 11.0167C26.5662 12.6983 27.4907 14.9334 27.4898 17.3105C27.4878 22.2158 23.497 26.2068 18.5937 26.2068H18.5901C16.9937 26.2061 15.428 25.7772 14.0621 24.9667L13.7373 24.7739ZM23.986 19.8563C23.9191 19.7448 23.7409 19.6779 23.4734 19.5439C23.206 19.4101 21.8911 18.7632 21.6459 18.6738C21.4008 18.5846 21.2225 18.54 21.0442 18.8077C20.866 19.0754 20.3534 19.6779 20.1974 19.8563C20.0414 20.0348 19.8854 20.0572 19.618 19.9233C19.3506 19.7894 18.4889 19.507 17.4673 18.5959C16.6723 17.8867 16.1355 17.0109 15.9795 16.7432C15.8235 16.4754 15.9629 16.3307 16.0968 16.1974C16.2171 16.0775 16.3642 15.8849 16.4979 15.7288C16.6317 15.5727 16.6762 15.4611 16.7654 15.2827C16.8545 15.1041 16.81 14.948 16.7431 14.8141C16.6762 14.6803 16.1414 13.3639 15.9185 12.8284C15.7014 12.3069 15.4809 12.3775 15.3168 12.3693C15.161 12.3615 14.9825 12.3598 14.8042 12.3598C14.6259 12.3598 14.3362 12.4267 14.091 12.6945C13.8459 12.9622 13.155 13.6093 13.155 14.9256C13.155 16.242 14.1133 17.5137 14.247 17.6922C14.3808 17.8707 16.1329 20.572 18.8157 21.7304C19.4538 22.006 19.9519 22.1705 20.3403 22.2938C20.981 22.4974 21.5641 22.4686 22.0248 22.3997C22.5387 22.323 23.6071 21.7528 23.8301 21.1281C24.0528 20.5033 24.0528 19.9678 23.986 19.8563Z" fill="#D2170D"/>
    </symbol>

    <symbol id="vk" width="36" height="36" viewBox="0 0 36 36" fill="none" xmlns="http://www.w3.org/2000/svg">
        <path fill-rule="evenodd" clip-rule="evenodd" d="M0 18C0 8.05887 8.05887 0 18 0C27.9411 0 36 8.05887 36 18C36 27.9411 27.9411 36 18 36C8.05887 36 0 27.9411 0 18ZM18.9416 23.9071C18.9416 23.9071 19.2881 23.8693 19.4656 23.6821C19.6281 23.5107 19.6224 23.1871 19.6224 23.1871C19.6224 23.1871 19.6008 21.6763 20.3155 21.4533C21.0198 21.2339 21.9241 22.9143 22.8838 23.5605C23.6088 24.049 24.1591 23.9421 24.1591 23.9421L26.7237 23.9071C26.7237 23.9071 28.0647 23.8259 27.4289 22.7908C27.3764 22.706 27.058 22.0248 25.5226 20.6255C23.914 19.1608 24.13 19.3977 26.0663 16.8637C27.2458 15.3206 27.7172 14.3785 27.5698 13.9757C27.4299 13.5904 26.5622 13.6927 26.5622 13.6927L23.6755 13.7102C23.6755 13.7102 23.4614 13.6816 23.3027 13.7747C23.1477 13.866 23.0472 14.0789 23.0472 14.0789C23.0472 14.0789 22.5908 15.2726 21.9814 16.2885C20.6958 18.4307 20.1821 18.5441 19.9718 18.4113C19.4825 18.1007 19.6046 17.1651 19.6046 16.5005C19.6046 14.4237 19.9257 13.5581 18.9801 13.3341C18.6665 13.2595 18.4354 13.2106 17.6325 13.2023C16.6024 13.1922 15.7309 13.206 15.237 13.4429C14.9083 13.6005 14.6547 13.9526 14.8097 13.9729C15.0003 13.9978 15.4323 14.0872 15.6614 14.3933C15.9572 14.7887 15.9469 15.6755 15.9469 15.6755C15.9469 15.6755 16.1169 18.1201 15.5497 18.4233C15.1609 18.6317 14.6275 18.2067 13.4809 16.2627C12.894 15.2671 12.4507 14.1665 12.4507 14.1665C12.4507 14.1665 12.3653 13.9609 12.2122 13.8503C12.0272 13.7167 11.769 13.6752 11.769 13.6752L9.02593 13.6927C9.02593 13.6927 8.61368 13.7038 8.46248 13.8798C8.3282 14.0356 8.45215 14.3592 8.45215 14.3592C8.45215 14.3592 10.5998 19.2917 13.032 21.7777C15.2623 24.0564 17.7941 23.9071 17.7941 23.9071H18.9416Z" fill="#D2170D"/>
    </symbol>

    <symbol id="phone-primary" width="16" height="16" viewBox="0 0 16 16" fill="none" xmlns="http://www.w3.org/2000/svg">
        <path d="M12.1641 10.5836C11.6414 10.0676 10.9888 10.0676 10.4694 10.5836C10.0732 10.9765 9.67699 11.3694 9.28744 11.7689C9.1809 11.8788 9.091 11.9021 8.96115 11.8288C8.70479 11.689 8.43177 11.5758 8.18539 11.4226C7.03673 10.7001 6.07452 9.77123 5.22218 8.72578C4.79934 8.20639 4.42312 7.65037 4.16009 7.02443C4.10682 6.89791 4.11681 6.81468 4.22002 6.71147C4.61622 6.32858 5.00244 5.9357 5.39198 5.54283C5.93469 4.9968 5.93469 4.35754 5.38866 3.80818C5.07902 3.49522 4.76938 3.18891 4.45974 2.87594C4.14011 2.55631 3.82381 2.23335 3.50086 1.91706C2.97813 1.40765 2.32556 1.40765 1.80617 1.92039C1.40663 2.31326 1.02375 2.71612 0.617555 3.10234C0.241327 3.45859 0.0515486 3.89475 0.0115952 4.40416C-0.0516643 5.23319 0.151432 6.01561 0.437765 6.77805C1.02375 8.35621 1.91604 9.75791 2.99811 11.0431C4.45974 12.7811 6.20437 14.1561 8.24532 15.1483C9.16425 15.5944 10.1165 15.9374 11.1519 15.994C11.8644 16.0339 12.4837 15.8541 12.9798 15.2981C13.3194 14.9186 13.7023 14.5723 14.0619 14.2094C14.5946 13.67 14.5979 13.0174 14.0685 12.4847C13.4359 11.8488 12.8 11.2162 12.1641 10.5836Z" fill="#D2170D"/>
        <path d="M11.5284 7.93104L12.7569 7.72128C12.5638 6.5926 12.0311 5.57046 11.2221 4.75807C10.3664 3.9024 9.28431 3.36303 8.09237 3.19656L7.91924 4.43179C8.84149 4.56163 9.68052 4.97782 10.3431 5.64038C10.969 6.26631 11.3785 7.05872 11.5284 7.93104Z" fill="#D2170D"/>
        <path d="M13.4494 2.59031C12.031 1.17197 10.2364 0.276344 8.25542 0L8.08229 1.23523C9.79363 1.47495 11.3452 2.25071 12.5704 3.47262C13.7324 4.63459 14.4948 6.10288 14.7712 7.71766L15.9997 7.50791C15.6768 5.63676 14.7945 3.93874 13.4494 2.59031Z" fill="#D2170D"/>
    </symbol>

<symbol id="phone-mobile" width="30" height="30" viewBox="0 0 30 30" fill="none" xmlns="http://www.w3.org/2000/svg">
<path d="M22.8081 19.8451C21.8279 18.8775 20.6043 18.8775 19.6305 19.8451C18.8876 20.5818 18.1447 21.3185 17.4143 22.0676C17.2145 22.2737 17.0459 22.3174 16.8025 22.18C16.3218 21.9178 15.8098 21.7055 15.3479 21.4184C13.1941 20.0636 11.3899 18.3218 9.79176 16.3616C8.99892 15.3876 8.29348 14.3451 7.8003 13.1714C7.70042 12.9341 7.71914 12.7781 7.91267 12.5845C8.65557 11.8666 9.37974 11.1299 10.1101 10.3933C11.1277 9.3694 11.1277 8.17075 10.1039 7.14065C9.52332 6.55381 8.94274 5.97946 8.36216 5.39262C7.76284 4.79329 7.16978 4.18772 6.56422 3.59464C5.5841 2.63946 4.3605 2.63946 3.38662 3.60088C2.63749 4.33755 1.91956 5.09295 1.15794 5.81714C0.452496 6.48514 0.0966553 7.30297 0.0217414 8.25815C-0.0968723 9.81265 0.28394 11.2798 0.820823 12.7094C1.91956 15.6686 3.59264 18.2969 5.62156 20.7067C8.36216 23.9655 11.6334 26.5439 15.4602 28.4043C17.1833 29.2408 18.9687 29.8839 20.9102 29.99C22.2462 30.0649 23.4074 29.7278 24.3375 28.6852C24.9743 27.9735 25.6922 27.3242 26.3665 26.6438C27.3653 25.6324 27.3716 24.4088 26.3789 23.4099C25.1928 22.2175 24.0004 21.0313 22.8081 19.8451Z" fill="#D2170D"/>
<path d="M21.6161 14.8713L23.9197 14.478C23.5576 12.3617 22.5587 10.4451 21.0417 8.92177C19.4373 7.31732 17.4084 6.30596 15.1734 5.99381L14.8488 8.30996C16.5781 8.55343 18.1513 9.33381 19.3936 10.5762C20.5673 11.7498 21.3351 13.2357 21.6161 14.8713Z" fill="#D2170D"/>
<path d="M25.218 4.85704C22.5586 2.19753 19.1937 0.518168 15.4792 0L15.1546 2.31615C18.3634 2.76564 21.2725 4.22026 23.5699 6.51144C25.7486 8.69024 27.1782 11.4434 27.6964 14.4712L30 14.0779C29.3944 10.5694 27.7401 7.38545 25.218 4.85704Z" fill="#D2170D"/>
</symbol>


</svg>